<svg xmlns="http://www.w3.org/2000/svg" xmlns:xlink="http://www.w3.org/1999/xlink" contentStyleType="text/css" data-diagram-type="ACTIVITY" height="1672px" preserveAspectRatio="none" style="width:693px;height:1672px;background:#FFFFFF;" version="1.1" viewBox="0 0 693 1672" width="693px" zoomAndPan="magnify"><?plantuml 1.2026.4beta2?><defs/><g><g class="title" data-source-line="7"><text fill="#000000" font-family="sans-serif" font-size="14" font-weight="700" lengthAdjust="spacing" textLength="266.5605" x="212.696" y="32.9951">Bi&#7875;u &#273;&#7891; ho&#7841;t &#273;&#7897;ng c&#7911;a AI Pipeline</text></g><ellipse cx="357.7363" cy="62.2969" fill="#222222" rx="10" ry="10" style="stroke:#222222;stroke-width:1;"/><rect fill="#FFFFFF" height="33.9688" rx="12.5" ry="12.5" style="stroke:#333333;stroke-width:0.5;" width="203.709" x="255.8818" y="92.2969"/><text fill="#000000" font-family="sans-serif" font-size="12" lengthAdjust="spacing" textLength="183.709" x="265.8818" y="113.4355">Nh&#7853;n Job Payload t&#7915; RabbitMQ</text><rect fill="#FFFFFF" height="33.9688" rx="12.5" ry="12.5" style="stroke:#333333;stroke-width:0.5;" width="286.4316" x="214.5205" y="146.2656"/><text fill="#000000" font-family="sans-serif" font-size="12" lengthAdjust="spacing" textLength="266.4316" x="224.5205" y="167.4043">T&#7843;i &#7843;nh truy&#7879;n g&#7889;c t&#7915; MinIO v&#7873; th&#432; m&#7909;c t&#7841;m</text><rect fill="#FFFFFF" height="33.9688" rx="12.5" ry="12.5" style="stroke:#333333;stroke-width:0.5;" width="120.7871" x="297.3428" y="200.2344"/><text fill="#000000" font-family="sans-serif" font-size="12" lengthAdjust="spacing" textLength="100.7871" x="307.3428" y="221.373">Kh&#7903;i t&#7841;o pipeline</text><polygon fill="#FFFFFF" points="298.3213,254.2031,417.1514,254.2031,429.1514,266.2031,417.1514,278.2031,298.3213,278.2031,286.3213,266.2031,298.3213,254.2031" style="stroke:#333333;stroke-width:0.5;"/><text fill="#000000" font-family="sans-serif" font-size="11" lengthAdjust="spacing" textLength="118.8301" x="298.3213" y="270.0112">Ki&#7875;m tra comic_type?</text><text fill="#000000" font-family="sans-serif" font-size="11" lengthAdjust="spacing" textLength="38.1509" x="248.1704" y="263.6089">manga</text><text fill="#000000" font-family="sans-serif" font-size="11" lengthAdjust="spacing" textLength="47.4912" x="429.1514" y="263.6089">webtoon</text><rect fill="none" height="481.0156" style="stroke:#000000;stroke-width:1.5;" width="336.8242" x="21.1147" y="288.2031"/><path d="M166.4663,288.2031 L166.4663,297.5 L156.4663,307.5 L21.1147,307.5" fill="none" style="stroke:#000000;stroke-width:1.5;"/><text fill="#000000" font-family="sans-serif" font-size="14" lengthAdjust="spacing" textLength="135.3516" x="24.1147" y="302.1982">Nh&#225;nh x&#7917; l&#253; Manga</text><rect fill="#FFFFFF" height="33.9688" rx="12.5" ry="12.5" style="stroke:#333333;stroke-width:0.5;" width="183.125" x="97.9644" y="324.5"/><text fill="#000000" font-family="sans-serif" font-size="12" lengthAdjust="spacing" textLength="163.125" x="107.9644" y="345.6387">Nh&#7853;n di&#7879;n v&#224; c&#7855;t c&#225;c Panel</text><rect fill="#FFFFFF" height="33.9688" rx="12.5" ry="12.5" style="stroke:#333333;stroke-width:0.5;" width="265.8066" x="56.6235" y="378.4688"/><text fill="#000000" font-family="sans-serif" font-size="12" lengthAdjust="spacing" textLength="245.8066" x="66.6235" y="399.6074">Ph&#225;t hi&#7879;n h&#7897;p tho&#7841;i b&#7857;ng `TextDetector`</text><rect fill="#FFFFFF" height="47.9375" rx="12.5" ry="12.5" style="stroke:#333333;stroke-width:0.5;" width="241.3555" x="68.8491" y="432.4375"/><text fill="#000000" font-family="sans-serif" font-size="12" lengthAdjust="spacing" textLength="221.3555" x="78.8491" y="453.5762">S&#7855;p x&#7871;p th&#7913; t&#7921; bong b&#243;ng tho&#7841;i theo</text><text fill="#000000" font-family="sans-serif" font-size="12" lengthAdjust="spacing" textLength="204.1465" x="78.8491" y="467.5449">logic &#244; tranh v&#224; thu&#7853;t to&#225;n XY Cut</text><rect fill="#FFFFFF" height="33.9688" rx="12.5" ry="12.5" style="stroke:#333333;stroke-width:0.5;" width="297.166" x="40.9438" y="507.375"/><text fill="#000000" font-family="sans-serif" font-size="12" lengthAdjust="spacing" textLength="277.166" x="50.9438" y="528.5137">Duy&#7879;t qua t&#7915;ng kh&#7889;i h&#7897;p tho&#7841;i &#273;&#432;&#7907;c ph&#225;t hi&#7879;n</text><rect fill="#FFFFFF" height="33.9688" rx="12.5" ry="12.5" style="stroke:#333333;stroke-width:0.5;" width="201.1133" x="88.9702" y="561.3438"/><text fill="#000000" font-family="sans-serif" font-size="12" lengthAdjust="spacing" textLength="181.1133" x="98.9702" y="582.4824">Ki&#7875;m tra v&#249;ng bi&#234;n ch&#7919; h&#7907;p l&#7879;</text><rect fill="#FFFFFF" height="33.9688" rx="12.5" ry="12.5" style="stroke:#333333;stroke-width:0.5;" width="280.9063" x="49.0737" y="615.3125"/><text fill="#000000" font-family="sans-serif" font-size="12" lengthAdjust="spacing" textLength="260.9063" x="59.0737" y="636.4512">V&#7869; &#273;&#432;&#7901;ng vi&#7873;n bi&#234;n &#273;&#7875; t&#7841;o m&#7863;t n&#7841; nh&#7883; ph&#226;n</text><rect fill="#FFFFFF" height="33.9688" rx="12.5" ry="12.5" style="stroke:#333333;stroke-width:0.5;" width="316.8242" x="31.1147" y="669.2813"/><text fill="#000000" font-family="sans-serif" font-size="12" lengthAdjust="spacing" textLength="296.8242" x="41.1147" y="690.4199">Tr&#237;ch xu&#7845;t v&#224; crop &#7843;nh nh&#7887; ch&#7913;a bong b&#243;ng tho&#7841;i</text><rect fill="#FFFFFF" height="33.9688" rx="12.5" ry="12.5" style="stroke:#333333;stroke-width:0.5;" width="113.0762" x="132.9888" y="723.25"/><text fill="#000000" font-family="sans-serif" font-size="12" lengthAdjust="spacing" textLength="93.0762" x="142.9888" y="744.3887">OCR ti&#7871;ng Nh&#7853;t</text><rect fill="none" height="204.1719" style="stroke:#000000;stroke-width:1.5;" width="296.0137" x="377.939" y="288.2031"/><path d="M539.1294,288.2031 L539.1294,297.5 L529.1294,307.5 L377.939,307.5" fill="none" style="stroke:#000000;stroke-width:1.5;"/><text fill="#000000" font-family="sans-serif" font-size="14" lengthAdjust="spacing" textLength="151.1904" x="380.939" y="302.1982">Nh&#225;nh x&#7917; l&#253; Webtoon</text><rect fill="#FFFFFF" height="33.9688" rx="12.5" ry="12.5" style="stroke:#333333;stroke-width:0.5;" width="276.0137" x="387.939" y="324.5"/><text fill="#000000" font-family="sans-serif" font-size="12" lengthAdjust="spacing" textLength="256.0137" x="397.939" y="345.6387">Qu&#233;t to&#224;n b&#7897; b&#7873; m&#7863;t &#7843;nh b&#7857;ng PaddleOCR</text><rect fill="#FFFFFF" height="33.9688" rx="12.5" ry="12.5" style="stroke:#333333;stroke-width:0.5;" width="247.3906" x="402.2505" y="378.4688"/><text fill="#000000" font-family="sans-serif" font-size="12" lengthAdjust="spacing" textLength="227.3906" x="412.2505" y="399.6074">T&#7841;o m&#7863;t n&#7841; nh&#7883; ph&#226;n l&#7845;p &#273;&#7847;y kh&#7889;i ch&#7919;</text><rect fill="#FFFFFF" height="47.9375" rx="12.5" ry="12.5" style="stroke:#333333;stroke-width:0.5;" width="249.1895" x="401.3511" y="432.4375"/><text fill="#000000" font-family="sans-serif" font-size="12" lengthAdjust="spacing" textLength="229.1895" x="411.3511" y="453.5762">Nh&#243;m c&#225;c &#273;o&#7841;n ch&#7919; r&#7901;i r&#7841;c th&#224;nh kh&#7889;i</text><text fill="#000000" font-family="sans-serif" font-size="12" lengthAdjust="spacing" textLength="220.1074" x="411.3511" y="467.5449">h&#7897;i tho&#7841;i d&#7921;a tr&#234;n kho&#7843;ng c&#225;ch pixel</text><polygon fill="#FFFFFF" points="357.7363,775.2188,369.7363,787.2188,357.7363,799.2188,345.7363,787.2188,357.7363,775.2188" style="stroke:#333333;stroke-width:0.5;"/><rect fill="none" height="190.2031" style="stroke:#000000;stroke-width:1.5;" width="389.7402" x="162.8662" y="809.2188"/><path d="M332.9707,809.2188 L332.9707,818.5156 L322.9707,828.5156 L162.8662,828.5156" fill="none" style="stroke:#000000;stroke-width:1.5;"/><text fill="#000000" font-family="sans-serif" font-size="14" lengthAdjust="spacing" textLength="160.1045" x="165.8662" y="823.2139">X&#243;a ch&#7919; kh&#244;i ph&#7909;c n&#7873;n</text><rect fill="#FFFFFF" height="33.9688" rx="12.5" ry="12.5" style="stroke:#333333;stroke-width:0.5;" width="304.0273" x="205.7227" y="845.5156"/><text fill="#000000" font-family="sans-serif" font-size="12" lengthAdjust="spacing" textLength="284.0273" x="215.7227" y="866.6543">Chuy&#7875;n &#273;&#7893;i m&#7863;t n&#7841; ch&#7919; sang &#273;&#7883;nh d&#7841;ng &#7843;nh PIL</text><rect fill="#FFFFFF" height="33.9688" rx="12.5" ry="12.5" style="stroke:#333333;stroke-width:0.5;" width="369.7402" x="172.8662" y="899.4844"/><text fill="#000000" font-family="sans-serif" font-size="12" lengthAdjust="spacing" textLength="349.7402" x="182.8662" y="920.623">Ch&#7841;y m&#244; h&#236;nh LaMa x&#243;a ch&#7919; g&#7889;c v&#224; b&#249; &#273;&#7855;p pixel n&#7873;n s&#7841;ch</text><rect fill="#FFFFFF" height="33.9688" rx="12.5" ry="12.5" style="stroke:#333333;stroke-width:0.5;" width="295.7363" x="209.8682" y="953.4531"/><text fill="#000000" font-family="sans-serif" font-size="12" lengthAdjust="spacing" textLength="275.7363" x="219.8682" y="974.5918">T&#7843;i &#7843;nh &#273;&#227; x&#243;a ch&#7919; (`cleaned_img`) l&#234;n MinIO</text><polygon fill="#FFFFFF" points="283.1211,1019.4219,432.3516,1019.4219,444.3516,1031.4219,432.3516,1043.4219,283.1211,1043.4219,271.1211,1031.4219,283.1211,1019.4219" style="stroke:#333333;stroke-width:0.5;"/><text fill="#000000" font-family="sans-serif" font-size="11" lengthAdjust="spacing" textLength="149.2305" x="283.1211" y="1035.23">Ki&#7875;m tra c&#7901; skip_translate?</text><text fill="#000000" font-family="sans-serif" font-size="11" lengthAdjust="spacing" textLength="28.6226" x="242.4985" y="1028.8276">False</text><text fill="#000000" font-family="sans-serif" font-size="11" lengthAdjust="spacing" textLength="24.981" x="444.3516" y="1028.8276">True</text><rect fill="none" height="259.1719" style="stroke:#000000;stroke-width:1.5;" width="356.6934" x="16" y="1053.4219"/><path d="M98.9941,1053.4219 L98.9941,1062.7188 L88.9941,1072.7188 L16,1072.7188" fill="none" style="stroke:#000000;stroke-width:1.5;"/><text fill="#000000" font-family="sans-serif" font-size="14" lengthAdjust="spacing" textLength="72.9941" x="19" y="1067.417">D&#7883;ch thu&#7853;t</text><rect fill="#FFFFFF" height="33.9688" rx="12.5" ry="12.5" style="stroke:#333333;stroke-width:0.5;" width="319.3496" x="34.6719" y="1089.7188"/><text fill="#000000" font-family="sans-serif" font-size="12" lengthAdjust="spacing" textLength="299.3496" x="44.6719" y="1110.8574">T&#7841;o &#7843;nh State-of-Mark (SoM) &#273;&#7875; chu&#7849;n b&#7883; cho LLM</text><rect fill="#FFFFFF" height="33.9688" rx="12.5" ry="12.5" style="stroke:#333333;stroke-width:0.5;" width="173.9316" x="107.3809" y="1158.6875"/><text fill="#000000" font-family="sans-serif" font-size="12" lengthAdjust="spacing" textLength="153.9316" x="117.3809" y="1179.8262">Chu&#7849;n b&#7883; prompt cho LLM</text><rect fill="#FFFFFF" height="33.9688" rx="12.5" ry="12.5" style="stroke:#333333;stroke-width:0.5;" width="225.3652" x="81.6641" y="1212.6563"/><text fill="#000000" font-family="sans-serif" font-size="12" lengthAdjust="spacing" textLength="205.3652" x="91.6641" y="1233.7949">G&#7885;i API &#273;&#7871;n m&#244; h&#236;nh LLM (Gemini)</text><rect fill="#FFFFFF" height="33.9688" rx="12.5" ry="12.5" style="stroke:#333333;stroke-width:0.5;" width="336.6934" x="26" y="1266.625"/><text fill="#000000" font-family="sans-serif" font-size="12" lengthAdjust="spacing" textLength="316.6934" x="36" y="1287.7637">Duy&#7879;t k&#7871;t qu&#7843; v&#224; t&#7843;i t&#7879;p trans_{lang}.json l&#234;n MinIO</text><rect fill="#FFFFFF" height="33.9688" rx="12.5" ry="12.5" style="stroke:#333333;stroke-width:0.5;" width="245.1816" x="398.5352" y="1053.4219"/><text fill="#000000" font-family="sans-serif" font-size="12" lengthAdjust="spacing" textLength="225.1816" x="408.5352" y="1074.5605">B&#7887; qua ti&#7871;n tr&#236;nh d&#7883;ch thu&#7853;t ng&#7919; c&#7843;nh</text><rect fill="#FFFFFF" height="33.9688" rx="12.5" ry="12.5" style="stroke:#333333;stroke-width:0.5;" width="256.8652" x="392.6934" y="1122.3906"/><text fill="#000000" font-family="sans-serif" font-size="12" lengthAdjust="spacing" textLength="236.8652" x="402.6934" y="1143.5293">Kh&#7903;i t&#7841;o m&#7843;ng d&#7883;ch v&#7899;i tr&#7841;ng th&#225;i tr&#7889;ng</text><polygon fill="#FFFFFF" points="357.7363,1318.5938,369.7363,1330.5938,357.7363,1342.5938,345.7363,1330.5938,357.7363,1318.5938" style="stroke:#333333;stroke-width:0.5;"/><rect fill="none" height="258.1406" style="stroke:#000000;stroke-width:1.5;" width="394.9551" x="160.2588" y="1352.5938"/><path d="M401.5527,1352.5938 L401.5527,1361.8906 L391.5527,1371.8906 L160.2588,1371.8906" fill="none" style="stroke:#000000;stroke-width:1.5;"/><text fill="#000000" font-family="sans-serif" font-size="14" lengthAdjust="spacing" textLength="231.2939" x="163.2588" y="1366.5889">Kh&#226;u T&#7853;p k&#7871;t v&#224; &#272;&#7891;ng b&#7897; D&#7919; li&#7879;u</text><rect fill="#FFFFFF" height="33.9688" rx="12.5" ry="12.5" style="stroke:#333333;stroke-width:0.5;" width="222.3184" x="246.5771" y="1388.8906"/><text fill="#000000" font-family="sans-serif" font-size="12" lengthAdjust="spacing" textLength="202.3184" x="256.5771" y="1410.0293">&#272;&#243;ng g&#243;i t&#7879;p `original_metadata`</text><rect fill="#FFFFFF" height="33.9688" rx="12.5" ry="12.5" style="stroke:#333333;stroke-width:0.5;" width="323.9023" x="195.7852" y="1442.8594"/><text fill="#000000" font-family="sans-serif" font-size="12" lengthAdjust="spacing" textLength="303.9023" x="205.7852" y="1463.998">T&#7843;i t&#7879;p tin `original.json` l&#234;n MinIO Object Storage</text><rect fill="#FFFFFF" height="47.9375" rx="12.5" ry="12.5" style="stroke:#333333;stroke-width:0.5;" width="249.7051" x="232.8838" y="1496.8281"/><text fill="#000000" font-family="sans-serif" font-size="12" lengthAdjust="spacing" textLength="229.5879" x="242.8838" y="1517.9668">C&#7845;u tr&#250;c g&#243;i Payload ph&#7843;n h&#7891;i k&#7871;t qu&#7843;</text><text fill="#000000" font-family="sans-serif" font-size="12" lengthAdjust="spacing" textLength="229.7051" x="242.8838" y="1531.9355">tr&#7841;ng th&#225;i th&#224;nh c&#244;ng (`COMPLETED`)</text><rect fill="#FFFFFF" height="33.9688" rx="12.5" ry="12.5" style="stroke:#333333;stroke-width:0.5;" width="374.9551" x="170.2588" y="1564.7656"/><text fill="#000000" font-family="sans-serif" font-size="12" lengthAdjust="spacing" textLength="354.9551" x="180.2588" y="1585.9043">HTTP POST g&#7917;i d&#7919; li&#7879;u Webhook ph&#7843;n h&#7891;i v&#7873; Core Backend</text><ellipse cx="357.7363" cy="1641.7344" fill="none" rx="11" ry="11" style="stroke:#222222;stroke-width:1;"/><ellipse cx="357.7363" cy="1641.7344" fill="#222222" rx="6" ry="6" style="stroke:#222222;stroke-width:1;"/><line style="stroke:#333333;stroke-width:1;" x1="357.7363" x2="357.7363" y1="72.2969" y2="92.2969"/><polygon fill="#333333" points="353.7363,82.2969,357.7363,92.2969,361.7363,82.2969,357.7363,86.2969" style="stroke:#333333;stroke-width:1;"/><line style="stroke:#333333;stroke-width:1;" x1="357.7363" x2="357.7363" y1="126.2656" y2="146.2656"/><polygon fill="#333333" points="353.7363,136.2656,357.7363,146.2656,361.7363,136.2656,357.7363,140.2656" style="stroke:#333333;stroke-width:1;"/><line style="stroke:#333333;stroke-width:1;" x1="357.7363" x2="357.7363" y1="180.2344" y2="200.2344"/><polygon fill="#333333" points="353.7363,190.2344,357.7363,200.2344,361.7363,190.2344,357.7363,194.2344" style="stroke:#333333;stroke-width:1;"/><line style="stroke:#333333;stroke-width:1;" x1="189.5269" x2="189.5269" y1="358.4688" y2="378.4688"/><polygon fill="#333333" points="185.5269,368.4688,189.5269,378.4688,193.5269,368.4688,189.5269,372.4688" style="stroke:#333333;stroke-width:1;"/><line style="stroke:#333333;stroke-width:1;" x1="189.5269" x2="189.5269" y1="412.4375" y2="432.4375"/><polygon fill="#333333" points="185.5269,422.4375,189.5269,432.4375,193.5269,422.4375,189.5269,426.4375" style="stroke:#333333;stroke-width:1;"/><line style="stroke:#333333;stroke-width:1;" x1="189.5269" x2="189.5269" y1="480.375" y2="507.375"/><polygon fill="#333333" points="185.5269,497.375,189.5269,507.375,193.5269,497.375,189.5269,501.375" style="stroke:#333333;stroke-width:1;"/><line style="stroke:#333333;stroke-width:1;" x1="189.5269" x2="189.5269" y1="541.3438" y2="561.3438"/><polygon fill="#333333" points="185.5269,551.3438,189.5269,561.3438,193.5269,551.3438,189.5269,555.3438" style="stroke:#333333;stroke-width:1;"/><line style="stroke:#333333;stroke-width:1;" x1="189.5269" x2="189.5269" y1="595.3125" y2="615.3125"/><polygon fill="#333333" points="185.5269,605.3125,189.5269,615.3125,193.5269,605.3125,189.5269,609.3125" style="stroke:#333333;stroke-width:1;"/><line style="stroke:#333333;stroke-width:1;" x1="189.5269" x2="189.5269" y1="649.2813" y2="669.2813"/><polygon fill="#333333" points="185.5269,659.2813,189.5269,669.2813,193.5269,659.2813,189.5269,663.2813" style="stroke:#333333;stroke-width:1;"/><line style="stroke:#333333;stroke-width:1;" x1="189.5269" x2="189.5269" y1="703.25" y2="723.25"/><polygon fill="#333333" points="185.5269,713.25,189.5269,723.25,193.5269,713.25,189.5269,717.25" style="stroke:#333333;stroke-width:1;"/><line style="stroke:#333333;stroke-width:1;" x1="525.9458" x2="525.9458" y1="358.4688" y2="378.4688"/><polygon fill="#333333" points="521.9458,368.4688,525.9458,378.4688,529.9458,368.4688,525.9458,372.4688" style="stroke:#333333;stroke-width:1;"/><line style="stroke:#333333;stroke-width:1;" x1="525.9458" x2="525.9458" y1="412.4375" y2="432.4375"/><polygon fill="#333333" points="521.9458,422.4375,525.9458,432.4375,529.9458,422.4375,525.9458,426.4375" style="stroke:#333333;stroke-width:1;"/><line style="stroke:#333333;stroke-width:1;" x1="286.3213" x2="189.5269" y1="266.2031" y2="266.2031"/><line style="stroke:#333333;stroke-width:1;" x1="189.5269" x2="189.5269" y1="266.2031" y2="324.5"/><polygon fill="#333333" points="185.5269,314.5,189.5269,324.5,193.5269,314.5,189.5269,318.5" style="stroke:#333333;stroke-width:1;"/><line style="stroke:#333333;stroke-width:1;" x1="429.1514" x2="525.9458" y1="266.2031" y2="266.2031"/><line style="stroke:#333333;stroke-width:1;" x1="525.9458" x2="525.9458" y1="266.2031" y2="324.5"/><polygon fill="#333333" points="521.9458,314.5,525.9458,324.5,529.9458,314.5,525.9458,318.5" style="stroke:#333333;stroke-width:1;"/><line style="stroke:#333333;stroke-width:1;" x1="189.5269" x2="189.5269" y1="757.2188" y2="787.2188"/><line style="stroke:#333333;stroke-width:1;" x1="189.5269" x2="345.7363" y1="787.2188" y2="787.2188"/><polygon fill="#333333" points="335.7363,783.2188,345.7363,787.2188,335.7363,791.2188,339.7363,787.2188" style="stroke:#333333;stroke-width:1;"/><line style="stroke:#333333;stroke-width:1;" x1="525.9458" x2="525.9458" y1="480.375" y2="787.2188"/><line style="stroke:#333333;stroke-width:1;" x1="525.9458" x2="369.7363" y1="787.2188" y2="787.2188"/><polygon fill="#333333" points="379.7363,783.2188,369.7363,787.2188,379.7363,791.2188,375.7363,787.2188" style="stroke:#333333;stroke-width:1;"/><line style="stroke:#333333;stroke-width:1;" x1="357.7363" x2="357.7363" y1="234.2031" y2="254.2031"/><polygon fill="#333333" points="353.7363,244.2031,357.7363,254.2031,361.7363,244.2031,357.7363,248.2031" style="stroke:#333333;stroke-width:1;"/><line style="stroke:#333333;stroke-width:1;" x1="357.7363" x2="357.7363" y1="879.4844" y2="899.4844"/><polygon fill="#333333" points="353.7363,889.4844,357.7363,899.4844,361.7363,889.4844,357.7363,893.4844" style="stroke:#333333;stroke-width:1;"/><line style="stroke:#333333;stroke-width:1;" x1="357.7363" x2="357.7363" y1="933.4531" y2="953.4531"/><polygon fill="#333333" points="353.7363,943.4531,357.7363,953.4531,361.7363,943.4531,357.7363,947.4531" style="stroke:#333333;stroke-width:1;"/><line style="stroke:#333333;stroke-width:1;" x1="357.7363" x2="357.7363" y1="799.2188" y2="845.5156"/><polygon fill="#333333" points="353.7363,835.5156,357.7363,845.5156,361.7363,835.5156,357.7363,839.5156" style="stroke:#333333;stroke-width:1;"/><line style="stroke:#333333;stroke-width:1;" x1="194.3467" x2="194.3467" y1="1123.6875" y2="1158.6875"/><polygon fill="#333333" points="190.3467,1148.6875,194.3467,1158.6875,198.3467,1148.6875,194.3467,1152.6875" style="stroke:#333333;stroke-width:1;"/><line style="stroke:#333333;stroke-width:1;" x1="194.3467" x2="194.3467" y1="1192.6563" y2="1212.6563"/><polygon fill="#333333" points="190.3467,1202.6563,194.3467,1212.6563,198.3467,1202.6563,194.3467,1206.6563" style="stroke:#333333;stroke-width:1;"/><line style="stroke:#333333;stroke-width:1;" x1="194.3467" x2="194.3467" y1="1246.625" y2="1266.625"/><polygon fill="#333333" points="190.3467,1256.625,194.3467,1266.625,198.3467,1256.625,194.3467,1260.625" style="stroke:#333333;stroke-width:1;"/><line style="stroke:#333333;stroke-width:1;" x1="521.126" x2="521.126" y1="1087.3906" y2="1122.3906"/><polygon fill="#333333" points="517.126,1112.3906,521.126,1122.3906,525.126,1112.3906,521.126,1116.3906" style="stroke:#333333;stroke-width:1;"/><line style="stroke:#333333;stroke-width:1;" x1="271.1211" x2="194.3467" y1="1031.4219" y2="1031.4219"/><line style="stroke:#333333;stroke-width:1;" x1="194.3467" x2="194.3467" y1="1031.4219" y2="1089.7188"/><polygon fill="#333333" points="190.3467,1079.7188,194.3467,1089.7188,198.3467,1079.7188,194.3467,1083.7188" style="stroke:#333333;stroke-width:1;"/><line style="stroke:#333333;stroke-width:1;" x1="444.3516" x2="521.126" y1="1031.4219" y2="1031.4219"/><line style="stroke:#333333;stroke-width:1;" x1="521.126" x2="521.126" y1="1031.4219" y2="1053.4219"/><polygon fill="#333333" points="517.126,1043.4219,521.126,1053.4219,525.126,1043.4219,521.126,1047.4219" style="stroke:#333333;stroke-width:1;"/><line style="stroke:#333333;stroke-width:1;" x1="194.3467" x2="194.3467" y1="1300.5938" y2="1330.5938"/><line style="stroke:#333333;stroke-width:1;" x1="194.3467" x2="345.7363" y1="1330.5938" y2="1330.5938"/><polygon fill="#333333" points="335.7363,1326.5938,345.7363,1330.5938,335.7363,1334.5938,339.7363,1330.5938" style="stroke:#333333;stroke-width:1;"/><line style="stroke:#333333;stroke-width:1;" x1="521.126" x2="521.126" y1="1156.3594" y2="1330.5938"/><line style="stroke:#333333;stroke-width:1;" x1="521.126" x2="369.7363" y1="1330.5938" y2="1330.5938"/><polygon fill="#333333" points="379.7363,1326.5938,369.7363,1330.5938,379.7363,1334.5938,375.7363,1330.5938" style="stroke:#333333;stroke-width:1;"/><line style="stroke:#333333;stroke-width:1;" x1="357.7363" x2="357.7363" y1="987.4219" y2="1019.4219"/><polygon fill="#333333" points="353.7363,1009.4219,357.7363,1019.4219,361.7363,1009.4219,357.7363,1013.4219" style="stroke:#333333;stroke-width:1;"/><line style="stroke:#333333;stroke-width:1;" x1="357.7363" x2="357.7363" y1="1422.8594" y2="1442.8594"/><polygon fill="#333333" points="353.7363,1432.8594,357.7363,1442.8594,361.7363,1432.8594,357.7363,1436.8594" style="stroke:#333333;stroke-width:1;"/><line style="stroke:#333333;stroke-width:1;" x1="357.7363" x2="357.7363" y1="1476.8281" y2="1496.8281"/><polygon fill="#333333" points="353.7363,1486.8281,357.7363,1496.8281,361.7363,1486.8281,357.7363,1490.8281" style="stroke:#333333;stroke-width:1;"/><line style="stroke:#333333;stroke-width:1;" x1="357.7363" x2="357.7363" y1="1544.7656" y2="1564.7656"/><polygon fill="#333333" points="353.7363,1554.7656,357.7363,1564.7656,361.7363,1554.7656,357.7363,1558.7656" style="stroke:#333333;stroke-width:1;"/><line style="stroke:#333333;stroke-width:1;" x1="357.7363" x2="357.7363" y1="1342.5938" y2="1388.8906"/><polygon fill="#333333" points="353.7363,1378.8906,357.7363,1388.8906,361.7363,1378.8906,357.7363,1382.8906" style="stroke:#333333;stroke-width:1;"/><line style="stroke:#333333;stroke-width:1;" x1="357.7363" x2="357.7363" y1="1598.7344" y2="1630.7344"/><polygon fill="#333333" points="353.7363,1620.7344,357.7363,1630.7344,361.7363,1620.7344,357.7363,1624.7344" style="stroke:#333333;stroke-width:1;"/><?plantuml-src XLR1Rjj64BtpAmRfHJwaADgRTIXiEKbTIx4I2qbwibOKJMv4xhBKqh4G-63ua8DH94BGGr0KZMiOWTiOIM03HKW4EL38V_1F-dP9sbHYj3mGfdPszhqtRsOz7d4HieW5r9k4JakAiOeO5seZP3ONBdrZZIyYMZ88fN2mg2Q-Gt7WVrjRNR8Lt-PgiipiaHl9M0nRqfSHVNNJF5T5ocZeH6NKT-QfHqMHV3I_Q2ckSF0opzFzc6RJF7rEdioJGsK-NW2ldQUl62sjKfU7Zi-5OrbZnI9bMOktlJmv5VIZ752NJNp9XgJoz6-womO3hZftcjPYBq-EEE4bF59HFCdJ9uBSF9tQHMY7YzLrsixJFLBUfxSKvEcnNaeE0-nUy_Bq3su-9ONb-KtBublKMDEO0oHbPCk0sviASd-_W3IEe4R0XCiMBC83yc39fQ1hjxti441sylIK_Em3TNJKDNfiulHJKHfo0tGxUmd-oHj5TdPeWwHm_EPbS1Vf57b5BA2-276wLe_J84_UGRn-pzbHAuvoR2MZVcth1hA6099yr7loz4JByOu64fi6sHdULIRmaMJvqkKsPUUQBnXeOCgBWLMHaY153twYLgng9wmOiHNz73CZDLAESD2KVuPqDltqDa-FR0fhR6fvQZflP-yrF9xz9SX6bZSwrL58FhRKTjpBamzbsjyHluq4UwBSfbsrNnOqo9D_50dyJGA93ZI2F-j7zwBir4QvmFDO5SM8P5YwIMzvQc2Si2jqgwLPRzqbnI4rLarzIvbsBSSVEzHuv0oKbE9_tNA_Y9lpovquEp4bU0c6q5M_zafc1SxI2Lqs7FeEeDJv_OSC43Kv3hLUoQj9LJaZUhFkrkmiABmvcshQLLqYIC_nJh2YF83pgXIMhZw_gFuGheC_8bsRaVxjIBSy4dhejvtAxL1A3FcMPTNKUP2TiVAqaPUTSy0slIjqjIkD5bkUjk5-KVXVUPriiNUC5ZIB1y0ur1JSKhZkQhjP9S7l4mfWVozxZQKswp3QkGHG31Hja47stcY6vZBu2pWqrafuPRhwJ9fDiwDwfaRVzXsq-N2J1sv_0NM7C6P8DQtTBmSFP2OCs71Jj-NOP-fo0jraCDSNdbe1KMXRzkwSbGet5B0s559TbrlNEomQKMD3TXRArh7rpXDZjWDyI6gtEpL7jEhBOOJxHLqHTIjFV-6qr5qrMdqKTMdR7MhSSW8k-C8LqsI4S3rJ0BCOGaPBp9SdeHbDuyt7FYgw-_N3CUZMrQjtN2-AIsaMbtKNcnbbEbHRyRLnGbqd4gukZct4AQiuTpS4XN7BNRXEViDALBW9_ZyqN-bKkCqhdBo6Vei9yf-69J_DRFOCbw6UAhghL_JnlXwDyOMrPy_Cl76piqg0leouomNpDmD7iI5Jh3zdkL8cBYuZZKxzcb2qFdY8sm8Ea15pdQe3C0nYhKrY5mTMzosQ3ipr77xEvufZVKQ_609sTewV6ltMUgVRlj6xiT8lYxpuGw_NfUxwHaytqwaP31LZFVWyAKVpXvaxkoKZ_FU0_q-WgccGiPBXlm00?></g></svg>