<svg xmlns="http://www.w3.org/2000/svg" xmlns:xlink="http://www.w3.org/1999/xlink" contentStyleType="text/css" data-diagram-type="ACTIVITY" height="1672px" preserveAspectRatio="none" style="width:702px;height:1672px;background:#FFFFFF;" version="1.1" viewBox="0 0 702 1672" width="702px" zoomAndPan="magnify"><?plantuml 1.2026.4beta2?><defs/><g><g class="title" data-source-line="7"><text fill="#000000" font-family="sans-serif" font-size="14" font-weight="700" lengthAdjust="spacing" textLength="660.1943" x="20" y="32.9951">Bi&#7875;u &#273;&#7891; ho&#7841;t &#273;&#7897;ng c&#7911;a &#272;&#432;&#7901;ng &#7889;ng AI Worker Pipeline (Asynchronous AI Processing)</text></g><ellipse cx="361.8572" cy="62.2969" fill="#222222" rx="10" ry="10" style="stroke:#222222;stroke-width:1;"/><rect fill="#FFFFFF" height="33.9688" rx="12.5" ry="12.5" style="stroke:#333333;stroke-width:0.5;" width="203.709" x="260.0027" y="92.2969"/><text fill="#000000" font-family="sans-serif" font-size="12" lengthAdjust="spacing" textLength="183.709" x="270.0027" y="113.4355">Nh&#7853;n Job Payload t&#7915; RabbitMQ</text><rect fill="#FFFFFF" height="33.9688" rx="12.5" ry="12.5" style="stroke:#333333;stroke-width:0.5;" width="286.4316" x="218.6414" y="146.2656"/><text fill="#000000" font-family="sans-serif" font-size="12" lengthAdjust="spacing" textLength="266.4316" x="228.6414" y="167.4043">T&#7843;i &#7843;nh truy&#7879;n g&#7889;c t&#7915; MinIO v&#7873; th&#432; m&#7909;c t&#7841;m</text><rect fill="#FFFFFF" height="33.9688" rx="12.5" ry="12.5" style="stroke:#333333;stroke-width:0.5;" width="120.7871" x="301.4636" y="200.2344"/><text fill="#000000" font-family="sans-serif" font-size="12" lengthAdjust="spacing" textLength="100.7871" x="311.4636" y="221.373">Kh&#7903;i t&#7841;o pipeline</text><polygon fill="#FFFFFF" points="302.4421,254.2031,421.2722,254.2031,433.2722,266.2031,421.2722,278.2031,302.4421,278.2031,290.4421,266.2031,302.4421,254.2031" style="stroke:#333333;stroke-width:0.5;"/><text fill="#000000" font-family="sans-serif" font-size="11" lengthAdjust="spacing" textLength="118.8301" x="302.4421" y="270.0112">Ki&#7875;m tra comic_type?</text><text fill="#000000" font-family="sans-serif" font-size="11" lengthAdjust="spacing" textLength="38.1509" x="252.2913" y="263.6089">manga</text><text fill="#000000" font-family="sans-serif" font-size="11" lengthAdjust="spacing" textLength="47.4912" x="433.2722" y="263.6089">webtoon</text><rect fill="none" height="481.0156" style="stroke:#000000;stroke-width:1.5;" width="336.8242" x="25.2356" y="288.2031"/><path d="M170.5872,288.2031 L170.5872,297.5 L160.5872,307.5 L25.2356,307.5" fill="none" style="stroke:#000000;stroke-width:1.5;"/><text fill="#000000" font-family="sans-serif" font-size="14" lengthAdjust="spacing" textLength="135.3516" x="28.2356" y="302.1982">Nh&#225;nh x&#7917; l&#253; Manga</text><rect fill="#FFFFFF" height="33.9688" rx="12.5" ry="12.5" style="stroke:#333333;stroke-width:0.5;" width="183.125" x="102.0852" y="324.5"/><text fill="#000000" font-family="sans-serif" font-size="12" lengthAdjust="spacing" textLength="163.125" x="112.0852" y="345.6387">Nh&#7853;n di&#7879;n v&#224; c&#7855;t c&#225;c Panel</text><rect fill="#FFFFFF" height="33.9688" rx="12.5" ry="12.5" style="stroke:#333333;stroke-width:0.5;" width="265.8066" x="60.7444" y="378.4688"/><text fill="#000000" font-family="sans-serif" font-size="12" lengthAdjust="spacing" textLength="245.8066" x="70.7444" y="399.6074">Ph&#225;t hi&#7879;n h&#7897;p tho&#7841;i b&#7857;ng `TextDetector`</text><rect fill="#FFFFFF" height="47.9375" rx="12.5" ry="12.5" style="stroke:#333333;stroke-width:0.5;" width="241.3555" x="72.97" y="432.4375"/><text fill="#000000" font-family="sans-serif" font-size="12" lengthAdjust="spacing" textLength="221.3555" x="82.97" y="453.5762">S&#7855;p x&#7871;p th&#7913; t&#7921; bong b&#243;ng tho&#7841;i theo</text><text fill="#000000" font-family="sans-serif" font-size="12" lengthAdjust="spacing" textLength="204.1465" x="82.97" y="467.5449">logic &#244; tranh v&#224; thu&#7853;t to&#225;n XY Cut</text><rect fill="#FFFFFF" height="33.9688" rx="12.5" ry="12.5" style="stroke:#333333;stroke-width:0.5;" width="297.166" x="45.0647" y="507.375"/><text fill="#000000" font-family="sans-serif" font-size="12" lengthAdjust="spacing" textLength="277.166" x="55.0647" y="528.5137">Duy&#7879;t qua t&#7915;ng kh&#7889;i h&#7897;p tho&#7841;i &#273;&#432;&#7907;c ph&#225;t hi&#7879;n</text><rect fill="#FFFFFF" height="33.9688" rx="12.5" ry="12.5" style="stroke:#333333;stroke-width:0.5;" width="201.1133" x="93.0911" y="561.3438"/><text fill="#000000" font-family="sans-serif" font-size="12" lengthAdjust="spacing" textLength="181.1133" x="103.0911" y="582.4824">Ki&#7875;m tra v&#249;ng bi&#234;n ch&#7919; h&#7907;p l&#7879;</text><rect fill="#FFFFFF" height="33.9688" rx="12.5" ry="12.5" style="stroke:#333333;stroke-width:0.5;" width="280.9063" x="53.1946" y="615.3125"/><text fill="#000000" font-family="sans-serif" font-size="12" lengthAdjust="spacing" textLength="260.9063" x="63.1946" y="636.4512">V&#7869; &#273;&#432;&#7901;ng vi&#7873;n bi&#234;n &#273;&#7875; t&#7841;o m&#7863;t n&#7841; nh&#7883; ph&#226;n</text><rect fill="#FFFFFF" height="33.9688" rx="12.5" ry="12.5" style="stroke:#333333;stroke-width:0.5;" width="316.8242" x="35.2356" y="669.2813"/><text fill="#000000" font-family="sans-serif" font-size="12" lengthAdjust="spacing" textLength="296.8242" x="45.2356" y="690.4199">Tr&#237;ch xu&#7845;t v&#224; crop &#7843;nh nh&#7887; ch&#7913;a bong b&#243;ng tho&#7841;i</text><rect fill="#FFFFFF" height="33.9688" rx="12.5" ry="12.5" style="stroke:#333333;stroke-width:0.5;" width="113.0762" x="137.1096" y="723.25"/><text fill="#000000" font-family="sans-serif" font-size="12" lengthAdjust="spacing" textLength="93.0762" x="147.1096" y="744.3887">OCR ti&#7871;ng Nh&#7853;t</text><rect fill="none" height="204.1719" style="stroke:#000000;stroke-width:1.5;" width="296.0137" x="382.0598" y="288.2031"/><path d="M543.2502,288.2031 L543.2502,297.5 L533.2502,307.5 L382.0598,307.5" fill="none" style="stroke:#000000;stroke-width:1.5;"/><text fill="#000000" font-family="sans-serif" font-size="14" lengthAdjust="spacing" textLength="151.1904" x="385.0598" y="302.1982">Nh&#225;nh x&#7917; l&#253; Webtoon</text><rect fill="#FFFFFF" height="33.9688" rx="12.5" ry="12.5" style="stroke:#333333;stroke-width:0.5;" width="276.0137" x="392.0598" y="324.5"/><text fill="#000000" font-family="sans-serif" font-size="12" lengthAdjust="spacing" textLength="256.0137" x="402.0598" y="345.6387">Qu&#233;t to&#224;n b&#7897; b&#7873; m&#7863;t &#7843;nh b&#7857;ng PaddleOCR</text><rect fill="#FFFFFF" height="33.9688" rx="12.5" ry="12.5" style="stroke:#333333;stroke-width:0.5;" width="247.3906" x="406.3713" y="378.4688"/><text fill="#000000" font-family="sans-serif" font-size="12" lengthAdjust="spacing" textLength="227.3906" x="416.3713" y="399.6074">T&#7841;o m&#7863;t n&#7841; nh&#7883; ph&#226;n l&#7845;p &#273;&#7847;y kh&#7889;i ch&#7919;</text><rect fill="#FFFFFF" height="47.9375" rx="12.5" ry="12.5" style="stroke:#333333;stroke-width:0.5;" width="249.1895" x="405.4719" y="432.4375"/><text fill="#000000" font-family="sans-serif" font-size="12" lengthAdjust="spacing" textLength="229.1895" x="415.4719" y="453.5762">Nh&#243;m c&#225;c &#273;o&#7841;n ch&#7919; r&#7901;i r&#7841;c th&#224;nh kh&#7889;i</text><text fill="#000000" font-family="sans-serif" font-size="12" lengthAdjust="spacing" textLength="220.1074" x="415.4719" y="467.5449">h&#7897;i tho&#7841;i d&#7921;a tr&#234;n kho&#7843;ng c&#225;ch pixel</text><polygon fill="#FFFFFF" points="361.8572,775.2188,373.8572,787.2188,361.8572,799.2188,349.8572,787.2188,361.8572,775.2188" style="stroke:#333333;stroke-width:0.5;"/><rect fill="none" height="190.2031" style="stroke:#000000;stroke-width:1.5;" width="389.7402" x="166.9871" y="809.2188"/><path d="M465.4636,809.2188 L465.4636,818.5156 L455.4636,828.5156 L166.9871,828.5156" fill="none" style="stroke:#000000;stroke-width:1.5;"/><text fill="#000000" font-family="sans-serif" font-size="14" lengthAdjust="spacing" textLength="288.4766" x="169.9871" y="823.2139">Kh&#226;u X&#243;a ch&#7919; Kh&#244;i ph&#7909;c N&#7873;n (Inpainting)</text><rect fill="#FFFFFF" height="33.9688" rx="12.5" ry="12.5" style="stroke:#333333;stroke-width:0.5;" width="304.0273" x="209.8435" y="845.5156"/><text fill="#000000" font-family="sans-serif" font-size="12" lengthAdjust="spacing" textLength="284.0273" x="219.8435" y="866.6543">Chuy&#7875;n &#273;&#7893;i m&#7863;t n&#7841; ch&#7919; sang &#273;&#7883;nh d&#7841;ng &#7843;nh PIL</text><rect fill="#FFFFFF" height="33.9688" rx="12.5" ry="12.5" style="stroke:#333333;stroke-width:0.5;" width="369.7402" x="176.9871" y="899.4844"/><text fill="#000000" font-family="sans-serif" font-size="12" lengthAdjust="spacing" textLength="349.7402" x="186.9871" y="920.623">Ch&#7841;y m&#244; h&#236;nh LaMa x&#243;a ch&#7919; g&#7889;c v&#224; b&#249; &#273;&#7855;p pixel n&#7873;n s&#7841;ch</text><rect fill="#FFFFFF" height="33.9688" rx="12.5" ry="12.5" style="stroke:#333333;stroke-width:0.5;" width="295.7363" x="213.989" y="953.4531"/><text fill="#000000" font-family="sans-serif" font-size="12" lengthAdjust="spacing" textLength="275.7363" x="223.989" y="974.5918">T&#7843;i &#7843;nh &#273;&#227; x&#243;a ch&#7919; (`cleaned_img`) l&#234;n MinIO</text><polygon fill="#FFFFFF" points="287.2419,1019.4219,436.4724,1019.4219,448.4724,1031.4219,436.4724,1043.4219,287.2419,1043.4219,275.2419,1031.4219,287.2419,1019.4219" style="stroke:#333333;stroke-width:0.5;"/><text fill="#000000" font-family="sans-serif" font-size="11" lengthAdjust="spacing" textLength="149.2305" x="287.2419" y="1035.23">Ki&#7875;m tra c&#7901; skip_translate?</text><text fill="#000000" font-family="sans-serif" font-size="11" lengthAdjust="spacing" textLength="28.6226" x="246.6194" y="1028.8276">False</text><text fill="#000000" font-family="sans-serif" font-size="11" lengthAdjust="spacing" textLength="24.981" x="448.4724" y="1028.8276">True</text><rect fill="none" height="259.1719" style="stroke:#000000;stroke-width:1.5;" width="356.6934" x="20.1208" y="1053.4219"/><path d="M103.115,1053.4219 L103.115,1062.7188 L93.115,1072.7188 L20.1208,1072.7188" fill="none" style="stroke:#000000;stroke-width:1.5;"/><text fill="#000000" font-family="sans-serif" font-size="14" lengthAdjust="spacing" textLength="72.9941" x="23.1208" y="1067.417">D&#7883;ch thu&#7853;t</text><rect fill="#FFFFFF" height="33.9688" rx="12.5" ry="12.5" style="stroke:#333333;stroke-width:0.5;" width="319.3496" x="38.7927" y="1089.7188"/><text fill="#000000" font-family="sans-serif" font-size="12" lengthAdjust="spacing" textLength="299.3496" x="48.7927" y="1110.8574">T&#7841;o &#7843;nh State-of-Mark (SoM) &#273;&#7875; chu&#7849;n b&#7883; cho LLM</text><rect fill="#FFFFFF" height="33.9688" rx="12.5" ry="12.5" style="stroke:#333333;stroke-width:0.5;" width="173.9316" x="111.5017" y="1158.6875"/><text fill="#000000" font-family="sans-serif" font-size="12" lengthAdjust="spacing" textLength="153.9316" x="121.5017" y="1179.8262">Chu&#7849;n b&#7883; prompt cho LLM</text><rect fill="#FFFFFF" height="33.9688" rx="12.5" ry="12.5" style="stroke:#333333;stroke-width:0.5;" width="225.3652" x="85.7849" y="1212.6563"/><text fill="#000000" font-family="sans-serif" font-size="12" lengthAdjust="spacing" textLength="205.3652" x="95.7849" y="1233.7949">G&#7885;i API &#273;&#7871;n m&#244; h&#236;nh LLM (Gemini)</text><rect fill="#FFFFFF" height="33.9688" rx="12.5" ry="12.5" style="stroke:#333333;stroke-width:0.5;" width="336.6934" x="30.1208" y="1266.625"/><text fill="#000000" font-family="sans-serif" font-size="12" lengthAdjust="spacing" textLength="316.6934" x="40.1208" y="1287.7637">Duy&#7879;t k&#7871;t qu&#7843; v&#224; t&#7843;i t&#7879;p trans_{lang}.json l&#234;n MinIO</text><rect fill="#FFFFFF" height="33.9688" rx="12.5" ry="12.5" style="stroke:#333333;stroke-width:0.5;" width="245.1816" x="402.656" y="1053.4219"/><text fill="#000000" font-family="sans-serif" font-size="12" lengthAdjust="spacing" textLength="225.1816" x="412.656" y="1074.5605">B&#7887; qua ti&#7871;n tr&#236;nh d&#7883;ch thu&#7853;t ng&#7919; c&#7843;nh</text><rect fill="#FFFFFF" height="33.9688" rx="12.5" ry="12.5" style="stroke:#333333;stroke-width:0.5;" width="256.8652" x="396.8142" y="1122.3906"/><text fill="#000000" font-family="sans-serif" font-size="12" lengthAdjust="spacing" textLength="236.8652" x="406.8142" y="1143.5293">Kh&#7903;i t&#7841;o m&#7843;ng d&#7883;ch v&#7899;i tr&#7841;ng th&#225;i tr&#7889;ng</text><polygon fill="#FFFFFF" points="361.8572,1318.5938,373.8572,1330.5938,361.8572,1342.5938,349.8572,1330.5938,361.8572,1318.5938" style="stroke:#333333;stroke-width:0.5;"/><rect fill="none" height="258.1406" style="stroke:#000000;stroke-width:1.5;" width="394.9551" x="164.3796" y="1352.5938"/><path d="M405.6736,1352.5938 L405.6736,1361.8906 L395.6736,1371.8906 L164.3796,1371.8906" fill="none" style="stroke:#000000;stroke-width:1.5;"/><text fill="#000000" font-family="sans-serif" font-size="14" lengthAdjust="spacing" textLength="231.2939" x="167.3796" y="1366.5889">Kh&#226;u T&#7853;p k&#7871;t v&#224; &#272;&#7891;ng b&#7897; D&#7919; li&#7879;u</text><rect fill="#FFFFFF" height="33.9688" rx="12.5" ry="12.5" style="stroke:#333333;stroke-width:0.5;" width="222.3184" x="250.698" y="1388.8906"/><text fill="#000000" font-family="sans-serif" font-size="12" lengthAdjust="spacing" textLength="202.3184" x="260.698" y="1410.0293">&#272;&#243;ng g&#243;i t&#7879;p `original_metadata`</text><rect fill="#FFFFFF" height="33.9688" rx="12.5" ry="12.5" style="stroke:#333333;stroke-width:0.5;" width="323.9023" x="199.906" y="1442.8594"/><text fill="#000000" font-family="sans-serif" font-size="12" lengthAdjust="spacing" textLength="303.9023" x="209.906" y="1463.998">T&#7843;i t&#7879;p tin `original.json` l&#234;n MinIO Object Storage</text><rect fill="#FFFFFF" height="47.9375" rx="12.5" ry="12.5" style="stroke:#333333;stroke-width:0.5;" width="249.7051" x="237.0046" y="1496.8281"/><text fill="#000000" font-family="sans-serif" font-size="12" lengthAdjust="spacing" textLength="229.5879" x="247.0046" y="1517.9668">C&#7845;u tr&#250;c g&#243;i Payload ph&#7843;n h&#7891;i k&#7871;t qu&#7843;</text><text fill="#000000" font-family="sans-serif" font-size="12" lengthAdjust="spacing" textLength="229.7051" x="247.0046" y="1531.9355">tr&#7841;ng th&#225;i th&#224;nh c&#244;ng (`COMPLETED`)</text><rect fill="#FFFFFF" height="33.9688" rx="12.5" ry="12.5" style="stroke:#333333;stroke-width:0.5;" width="374.9551" x="174.3796" y="1564.7656"/><text fill="#000000" font-family="sans-serif" font-size="12" lengthAdjust="spacing" textLength="354.9551" x="184.3796" y="1585.9043">HTTP POST g&#7917;i d&#7919; li&#7879;u Webhook ph&#7843;n h&#7891;i v&#7873; Core Backend</text><ellipse cx="361.8572" cy="1641.7344" fill="none" rx="11" ry="11" style="stroke:#222222;stroke-width:1;"/><ellipse cx="361.8572" cy="1641.7344" fill="#222222" rx="6" ry="6" style="stroke:#222222;stroke-width:1;"/><line style="stroke:#333333;stroke-width:1;" x1="361.8572" x2="361.8572" y1="72.2969" y2="92.2969"/><polygon fill="#333333" points="357.8572,82.2969,361.8572,92.2969,365.8572,82.2969,361.8572,86.2969" style="stroke:#333333;stroke-width:1;"/><line style="stroke:#333333;stroke-width:1;" x1="361.8572" x2="361.8572" y1="126.2656" y2="146.2656"/><polygon fill="#333333" points="357.8572,136.2656,361.8572,146.2656,365.8572,136.2656,361.8572,140.2656" style="stroke:#333333;stroke-width:1;"/><line style="stroke:#333333;stroke-width:1;" x1="361.8572" x2="361.8572" y1="180.2344" y2="200.2344"/><polygon fill="#333333" points="357.8572,190.2344,361.8572,200.2344,365.8572,190.2344,361.8572,194.2344" style="stroke:#333333;stroke-width:1;"/><line style="stroke:#333333;stroke-width:1;" x1="193.6477" x2="193.6477" y1="358.4688" y2="378.4688"/><polygon fill="#333333" points="189.6477,368.4688,193.6477,378.4688,197.6477,368.4688,193.6477,372.4688" style="stroke:#333333;stroke-width:1;"/><line style="stroke:#333333;stroke-width:1;" x1="193.6477" x2="193.6477" y1="412.4375" y2="432.4375"/><polygon fill="#333333" points="189.6477,422.4375,193.6477,432.4375,197.6477,422.4375,193.6477,426.4375" style="stroke:#333333;stroke-width:1;"/><line style="stroke:#333333;stroke-width:1;" x1="193.6477" x2="193.6477" y1="480.375" y2="507.375"/><polygon fill="#333333" points="189.6477,497.375,193.6477,507.375,197.6477,497.375,193.6477,501.375" style="stroke:#333333;stroke-width:1;"/><line style="stroke:#333333;stroke-width:1;" x1="193.6477" x2="193.6477" y1="541.3438" y2="561.3438"/><polygon fill="#333333" points="189.6477,551.3438,193.6477,561.3438,197.6477,551.3438,193.6477,555.3438" style="stroke:#333333;stroke-width:1;"/><line style="stroke:#333333;stroke-width:1;" x1="193.6477" x2="193.6477" y1="595.3125" y2="615.3125"/><polygon fill="#333333" points="189.6477,605.3125,193.6477,615.3125,197.6477,605.3125,193.6477,609.3125" style="stroke:#333333;stroke-width:1;"/><line style="stroke:#333333;stroke-width:1;" x1="193.6477" x2="193.6477" y1="649.2813" y2="669.2813"/><polygon fill="#333333" points="189.6477,659.2813,193.6477,669.2813,197.6477,659.2813,193.6477,663.2813" style="stroke:#333333;stroke-width:1;"/><line style="stroke:#333333;stroke-width:1;" x1="193.6477" x2="193.6477" y1="703.25" y2="723.25"/><polygon fill="#333333" points="189.6477,713.25,193.6477,723.25,197.6477,713.25,193.6477,717.25" style="stroke:#333333;stroke-width:1;"/><line style="stroke:#333333;stroke-width:1;" x1="530.0667" x2="530.0667" y1="358.4688" y2="378.4688"/><polygon fill="#333333" points="526.0667,368.4688,530.0667,378.4688,534.0667,368.4688,530.0667,372.4688" style="stroke:#333333;stroke-width:1;"/><line style="stroke:#333333;stroke-width:1;" x1="530.0667" x2="530.0667" y1="412.4375" y2="432.4375"/><polygon fill="#333333" points="526.0667,422.4375,530.0667,432.4375,534.0667,422.4375,530.0667,426.4375" style="stroke:#333333;stroke-width:1;"/><line style="stroke:#333333;stroke-width:1;" x1="290.4421" x2="193.6477" y1="266.2031" y2="266.2031"/><line style="stroke:#333333;stroke-width:1;" x1="193.6477" x2="193.6477" y1="266.2031" y2="324.5"/><polygon fill="#333333" points="189.6477,314.5,193.6477,324.5,197.6477,314.5,193.6477,318.5" style="stroke:#333333;stroke-width:1;"/><line style="stroke:#333333;stroke-width:1;" x1="433.2722" x2="530.0667" y1="266.2031" y2="266.2031"/><line style="stroke:#333333;stroke-width:1;" x1="530.0667" x2="530.0667" y1="266.2031" y2="324.5"/><polygon fill="#333333" points="526.0667,314.5,530.0667,324.5,534.0667,314.5,530.0667,318.5" style="stroke:#333333;stroke-width:1;"/><line style="stroke:#333333;stroke-width:1;" x1="193.6477" x2="193.6477" y1="757.2188" y2="787.2188"/><line style="stroke:#333333;stroke-width:1;" x1="193.6477" x2="349.8572" y1="787.2188" y2="787.2188"/><polygon fill="#333333" points="339.8572,783.2188,349.8572,787.2188,339.8572,791.2188,343.8572,787.2188" style="stroke:#333333;stroke-width:1;"/><line style="stroke:#333333;stroke-width:1;" x1="530.0667" x2="530.0667" y1="480.375" y2="787.2188"/><line style="stroke:#333333;stroke-width:1;" x1="530.0667" x2="373.8572" y1="787.2188" y2="787.2188"/><polygon fill="#333333" points="383.8572,783.2188,373.8572,787.2188,383.8572,791.2188,379.8572,787.2188" style="stroke:#333333;stroke-width:1;"/><line style="stroke:#333333;stroke-width:1;" x1="361.8572" x2="361.8572" y1="234.2031" y2="254.2031"/><polygon fill="#333333" points="357.8572,244.2031,361.8572,254.2031,365.8572,244.2031,361.8572,248.2031" style="stroke:#333333;stroke-width:1;"/><line style="stroke:#333333;stroke-width:1;" x1="361.8572" x2="361.8572" y1="879.4844" y2="899.4844"/><polygon fill="#333333" points="357.8572,889.4844,361.8572,899.4844,365.8572,889.4844,361.8572,893.4844" style="stroke:#333333;stroke-width:1;"/><line style="stroke:#333333;stroke-width:1;" x1="361.8572" x2="361.8572" y1="933.4531" y2="953.4531"/><polygon fill="#333333" points="357.8572,943.4531,361.8572,953.4531,365.8572,943.4531,361.8572,947.4531" style="stroke:#333333;stroke-width:1;"/><line style="stroke:#333333;stroke-width:1;" x1="361.8572" x2="361.8572" y1="799.2188" y2="845.5156"/><polygon fill="#333333" points="357.8572,835.5156,361.8572,845.5156,365.8572,835.5156,361.8572,839.5156" style="stroke:#333333;stroke-width:1;"/><line style="stroke:#333333;stroke-width:1;" x1="198.4675" x2="198.4675" y1="1123.6875" y2="1158.6875"/><polygon fill="#333333" points="194.4675,1148.6875,198.4675,1158.6875,202.4675,1148.6875,198.4675,1152.6875" style="stroke:#333333;stroke-width:1;"/><line style="stroke:#333333;stroke-width:1;" x1="198.4675" x2="198.4675" y1="1192.6563" y2="1212.6563"/><polygon fill="#333333" points="194.4675,1202.6563,198.4675,1212.6563,202.4675,1202.6563,198.4675,1206.6563" style="stroke:#333333;stroke-width:1;"/><line style="stroke:#333333;stroke-width:1;" x1="198.4675" x2="198.4675" y1="1246.625" y2="1266.625"/><polygon fill="#333333" points="194.4675,1256.625,198.4675,1266.625,202.4675,1256.625,198.4675,1260.625" style="stroke:#333333;stroke-width:1;"/><line style="stroke:#333333;stroke-width:1;" x1="525.2468" x2="525.2468" y1="1087.3906" y2="1122.3906"/><polygon fill="#333333" points="521.2468,1112.3906,525.2468,1122.3906,529.2468,1112.3906,525.2468,1116.3906" style="stroke:#333333;stroke-width:1;"/><line style="stroke:#333333;stroke-width:1;" x1="275.2419" x2="198.4675" y1="1031.4219" y2="1031.4219"/><line style="stroke:#333333;stroke-width:1;" x1="198.4675" x2="198.4675" y1="1031.4219" y2="1089.7188"/><polygon fill="#333333" points="194.4675,1079.7188,198.4675,1089.7188,202.4675,1079.7188,198.4675,1083.7188" style="stroke:#333333;stroke-width:1;"/><line style="stroke:#333333;stroke-width:1;" x1="448.4724" x2="525.2468" y1="1031.4219" y2="1031.4219"/><line style="stroke:#333333;stroke-width:1;" x1="525.2468" x2="525.2468" y1="1031.4219" y2="1053.4219"/><polygon fill="#333333" points="521.2468,1043.4219,525.2468,1053.4219,529.2468,1043.4219,525.2468,1047.4219" style="stroke:#333333;stroke-width:1;"/><line style="stroke:#333333;stroke-width:1;" x1="198.4675" x2="198.4675" y1="1300.5938" y2="1330.5938"/><line style="stroke:#333333;stroke-width:1;" x1="198.4675" x2="349.8572" y1="1330.5938" y2="1330.5938"/><polygon fill="#333333" points="339.8572,1326.5938,349.8572,1330.5938,339.8572,1334.5938,343.8572,1330.5938" style="stroke:#333333;stroke-width:1;"/><line style="stroke:#333333;stroke-width:1;" x1="525.2468" x2="525.2468" y1="1156.3594" y2="1330.5938"/><line style="stroke:#333333;stroke-width:1;" x1="525.2468" x2="373.8572" y1="1330.5938" y2="1330.5938"/><polygon fill="#333333" points="383.8572,1326.5938,373.8572,1330.5938,383.8572,1334.5938,379.8572,1330.5938" style="stroke:#333333;stroke-width:1;"/><line style="stroke:#333333;stroke-width:1;" x1="361.8572" x2="361.8572" y1="987.4219" y2="1019.4219"/><polygon fill="#333333" points="357.8572,1009.4219,361.8572,1019.4219,365.8572,1009.4219,361.8572,1013.4219" style="stroke:#333333;stroke-width:1;"/><line style="stroke:#333333;stroke-width:1;" x1="361.8572" x2="361.8572" y1="1422.8594" y2="1442.8594"/><polygon fill="#333333" points="357.8572,1432.8594,361.8572,1442.8594,365.8572,1432.8594,361.8572,1436.8594" style="stroke:#333333;stroke-width:1;"/><line style="stroke:#333333;stroke-width:1;" x1="361.8572" x2="361.8572" y1="1476.8281" y2="1496.8281"/><polygon fill="#333333" points="357.8572,1486.8281,361.8572,1496.8281,365.8572,1486.8281,361.8572,1490.8281" style="stroke:#333333;stroke-width:1;"/><line style="stroke:#333333;stroke-width:1;" x1="361.8572" x2="361.8572" y1="1544.7656" y2="1564.7656"/><polygon fill="#333333" points="357.8572,1554.7656,361.8572,1564.7656,365.8572,1554.7656,361.8572,1558.7656" style="stroke:#333333;stroke-width:1;"/><line style="stroke:#333333;stroke-width:1;" x1="361.8572" x2="361.8572" y1="1342.5938" y2="1388.8906"/><polygon fill="#333333" points="357.8572,1378.8906,361.8572,1388.8906,365.8572,1378.8906,361.8572,1382.8906" style="stroke:#333333;stroke-width:1;"/><line style="stroke:#333333;stroke-width:1;" x1="361.8572" x2="361.8572" y1="1598.7344" y2="1630.7344"/><polygon fill="#333333" points="357.8572,1620.7344,361.8572,1630.7344,365.8572,1620.7344,361.8572,1624.7344" style="stroke:#333333;stroke-width:1;"/><?plantuml-src XLP1Jzn65BxxLpobb-MGgcflxA4YIv9IMDY4LPAUs5clMK_Mdd77Oy8goW5no05L1KKzH5NLK8GYsg0a0gcAhIW7h_8__4_wpTWBteIsUx2mvysRzttlUzyGZxY8c68XTSUHrv8YrefneTSZvd8nfA-S-2AY9SD82W-BUXnub8J1rxNL1LVpBQx7DvWx6YgPY45B1bBH5xVixwf8gGQUggA-iRzwb5BoqUoYexd6mJTuaUqcD3aeicVaoo8zrFRbEUfrY-mbeyd-npT5zXlUY-m0puKbkY_Lo5FKuP4NSE5HOo4U2zTNKiWaDW4T9LqlZW5wpd5YpPHsdFbLlqXF1Nql-zHXuq2o0UaY-ulkidwVw_QTfZFVBT8ZJdW8dxHAnaNsLD0GvxfbQ9kBfJNQAh8Tqlx7DnGMsR5PIWz3x5xsY-ntRbybHLLnJSVXczHODZX396Naof2x6nej-dOEQJn1ZP298Pjp23yG1cQu57HjrSyFKSXsaPrIaB-djecwHezjdFbD8GsuBNGhVm7EqjUQtFpG1KZX1StBu0xIQVBBM9JwFCBfXd5E_I9z2sfxNMzRBthQSxLKlThMTMIDK4ZwmUmfiXD3nrlgIspgvsTuJZC1ZoGda4FkKdvky0A1AKpx2MhLf2L0qOCVg9NesWcBbcnDFoRCKesK8nnqm3-fT79Wr73aKbH3KyjJutahVsVAu_cVWbnaUMrI7KKKO4jjnxqYVL-bDIBRGe8TKMqpIjoj6XeMwT-Q1FucWKHxfe8_waTtLNxgebt0UQpBPYWPLMeoMtwsPPomAtYhfLbhtINDGJLMRNyhcfuuNX13wu-ylfPI_AzQxfTnCtgva-GdjWKlW12yciTEXQoiir92Xmq6WOTIwlZ-WmQGcXv7Xg_qvNZQEKjwiwxM_2mijJavCB2dVL6WdkEPOaNxACwVfd1Cz_b5zmTG7VIXJ6z6vjkHiGaaz35lsrErWoanu9kEKsDd6LKcz20_OzMP-73EKRoTu5NRyyOIx0f-QMnZIjjyopVAt2sry0kluoyJnPXAkxY7iWS6rR3YihEqqfmcmVSnXPW8Ft-5fHNMPhHzMKtfCKOp_VoTfH7pPY7XA5DRRCZngtHrcveSv4VrJ8sU6tYO_C463uUzEKW1N5dVQZfFFlSYC4_mwMZ3J6eSC7rfIhSOzFQPp1O157HNupoZhb8WPLdh6gckoythRQP6r5YNxRbgcbopyyJgRmylabPMsZMHjEhBaS8rfQ-8kbraFt5Qw2nPhZw8EhKhRMhSza8k-DmL1ZD2kB4Pb5dwakKIblCqicuLRpmEqD4dNpwC0RVENdq8kogfg9c_OGRRsfOTMgFELrO9TPv834rpN4jErSMPwo8ijLpjmWtpArPKgIQCnA5zC_TVyr_53VfFemgVGJRPnvrgZCOC-g8vFZ1kcLn8Ux9lBMYOdqq9w4d5XromO2FqD1impNepagjeuk8oqlBKgn55Q_s7k42W0AdOq9jE0FmXCToaRddWz0h610AviUPdVAOvpYVmIrzmytDyQlHQQ-tEoitkpSLUrUJvxxhT3dNMrhjcc4wjLqmH6o_qfHpD7cQlyPPK-2S4_-Q0LJiWiPRHFm00?></g></svg>