<svg xmlns="http://www.w3.org/2000/svg" xmlns:xlink="http://www.w3.org/1999/xlink" contentStyleType="text/css" data-diagram-type="ACTIVITY" height="1806px" preserveAspectRatio="none" style="width:1306px;height:1806px;background:#FFFFFF;" version="1.1" viewBox="0 0 1306 1806" width="1306px" zoomAndPan="magnify"><?plantuml 1.2026.4beta2?><defs/><g><g class="title" data-source-line="7"><text fill="#000000" font-family="sans-serif" font-size="14" font-weight="700" lengthAdjust="spacing" textLength="660.1943" x="321.9673" y="32.9951">Bi&#7875;u &#273;&#7891; ho&#7841;t &#273;&#7897;ng c&#7911;a &#272;&#432;&#7901;ng &#7889;ng AI Worker Pipeline (Asynchronous AI Processing)</text></g><ellipse cx="644.0537" cy="62.2969" fill="#222222" rx="10" ry="10" style="stroke:#222222;stroke-width:1;"/><rect fill="#FFFFFF" height="33.9688" rx="12.5" ry="12.5" style="stroke:#333333;stroke-width:0.5;" width="451.3203" x="418.3936" y="92.2969"/><text fill="#000000" font-family="sans-serif" font-size="12" lengthAdjust="spacing" textLength="431.3203" x="428.3936" y="113.4355">Nh&#7853;n th&#244;ng &#273;i&#7879;p JSON Payload t&#7915; h&#224;ng ch&#7901; RabbitMQ (`manga-queue`)</text><rect fill="#FFFFFF" height="33.9688" rx="12.5" ry="12.5" style="stroke:#333333;stroke-width:0.5;" width="408.8164" x="439.6455" y="146.2656"/><text fill="#000000" font-family="sans-serif" font-size="12" lengthAdjust="spacing" textLength="388.8164" x="449.6455" y="167.4043">T&#7843;i t&#7879;p tin &#7843;nh truy&#7879;n tranh g&#7889;c t&#7915; MinIO v&#7873; th&#432; m&#7909;c t&#7841;m c&#7909;c b&#7897;</text><rect fill="#FFFFFF" height="33.9688" rx="12.5" ry="12.5" style="stroke:#333333;stroke-width:0.5;" width="385.8301" x="451.1387" y="200.2344"/><text fill="#000000" font-family="sans-serif" font-size="12" lengthAdjust="spacing" textLength="365.8301" x="461.1387" y="221.373">Kh&#7903;i t&#7841;o &#273;&#7889;i t&#432;&#7907;ng t&#225;c v&#7909; d&#7919; li&#7879;u c&#7845;u tr&#250;c `pipeline_payload`</text><polygon fill="#FFFFFF" points="505.8662,254.2031,782.2412,254.2031,794.2412,266.2031,782.2412,278.2031,505.8662,278.2031,493.8662,266.2031,505.8662,254.2031" style="stroke:#333333;stroke-width:0.5;"/><text fill="#000000" font-family="sans-serif" font-size="11" lengthAdjust="spacing" textLength="276.375" x="505.8662" y="270.0112">Ki&#7875;m tra thu&#7897;c t&#237;nh comic_type &#273;&#7883;nh d&#7841;ng truy&#7879;n?</text><text fill="#000000" font-family="sans-serif" font-size="11" lengthAdjust="spacing" textLength="38.1509" x="455.7153" y="263.6089">manga</text><text fill="#000000" font-family="sans-serif" font-size="11" lengthAdjust="spacing" textLength="47.4912" x="794.2412" y="263.6089">webtoon</text><rect fill="none" height="467.0469" style="stroke:#000000;stroke-width:1.5;" width="611.043" x="16" y="288.2031"/><path d="M348.6084,288.2031 L348.6084,297.5 L338.6084,307.5 L16,307.5" fill="none" style="stroke:#000000;stroke-width:1.5;"/><text fill="#000000" font-family="sans-serif" font-size="14" lengthAdjust="spacing" textLength="322.6084" x="19" y="302.1982">Nh&#225;nh x&#7917; l&#253; Manga Engine (MangaOcrEngine)</text><rect fill="#FFFFFF" height="33.9688" rx="12.5" ry="12.5" style="stroke:#333333;stroke-width:0.5;" width="493.0098" x="75.0166" y="324.5"/><text fill="#000000" font-family="sans-serif" font-size="12" lengthAdjust="spacing" textLength="473.0098" x="85.0166" y="345.6387">Nh&#7853;n di&#7879;n v&#224; c&#7855;t c&#225;c &#244; tranh truy&#7879;n b&#7857;ng m&#244; h&#236;nh YOLOv12 (`PanelDetector`)</text><rect fill="#FFFFFF" height="33.9688" rx="12.5" ry="12.5" style="stroke:#333333;stroke-width:0.5;" width="357.9102" x="142.5664" y="378.4688"/><text fill="#000000" font-family="sans-serif" font-size="12" lengthAdjust="spacing" textLength="337.9102" x="152.5664" y="399.6074">Ph&#225;t hi&#7879;n c&#225;c ph&#226;n v&#249;ng h&#7897;p tho&#7841;i b&#7857;ng `TextDetector`</text><rect fill="#FFFFFF" height="33.9688" rx="12.5" ry="12.5" style="stroke:#333333;stroke-width:0.5;" width="591.043" x="26" y="432.4375"/><text fill="#000000" font-family="sans-serif" font-size="12" lengthAdjust="spacing" textLength="571.043" x="36" y="453.5762">S&#7855;p x&#7871;p th&#7913; t&#7921; bong b&#243;ng tho&#7841;i theo logic &#244; tranh v&#224; thu&#7853;t to&#225;n XY Cut (`BoundingBoxSorter`)</text><rect fill="#FFFFFF" height="33.9688" rx="12.5" ry="12.5" style="stroke:#333333;stroke-width:0.5;" width="297.166" x="172.9385" y="493.4063"/><text fill="#000000" font-family="sans-serif" font-size="12" lengthAdjust="spacing" textLength="277.166" x="182.9385" y="514.5449">Duy&#7879;t qua t&#7915;ng kh&#7889;i h&#7897;p tho&#7841;i &#273;&#432;&#7907;c ph&#225;t hi&#7879;n</text><rect fill="#FFFFFF" height="33.9688" rx="12.5" ry="12.5" style="stroke:#333333;stroke-width:0.5;" width="433.332" x="104.8555" y="547.375"/><text fill="#000000" font-family="sans-serif" font-size="12" lengthAdjust="spacing" textLength="413.332" x="114.8555" y="568.5137">Ki&#7875;m tra v&#249;ng bi&#234;n ch&#7919; h&#7907;p l&#7879; (`TextProcessor.is_valid_text_region`)</text><rect fill="#FFFFFF" height="33.9688" rx="12.5" ry="12.5" style="stroke:#333333;stroke-width:0.5;" width="404.0586" x="119.4922" y="601.3438"/><text fill="#000000" font-family="sans-serif" font-size="12" lengthAdjust="spacing" textLength="384.0586" x="129.4922" y="622.4824">V&#7869; &#273;&#432;&#7901;ng vi&#7873;n bi&#234;n &#273;&#7875; t&#7841;o m&#7863;t n&#7841; nh&#7883; ph&#226;n (`final_solid_mask`)</text><rect fill="#FFFFFF" height="33.9688" rx="12.5" ry="12.5" style="stroke:#333333;stroke-width:0.5;" width="316.8242" x="163.1094" y="655.3125"/><text fill="#000000" font-family="sans-serif" font-size="12" lengthAdjust="spacing" textLength="296.8242" x="173.1094" y="676.4512">Tr&#237;ch xu&#7845;t v&#224; crop &#7843;nh nh&#7887; ch&#7913;a bong b&#243;ng tho&#7841;i</text><rect fill="#FFFFFF" height="33.9688" rx="12.5" ry="12.5" style="stroke:#333333;stroke-width:0.5;" width="442.9414" x="100.0508" y="709.2813"/><text fill="#000000" font-family="sans-serif" font-size="12" lengthAdjust="spacing" textLength="422.9414" x="110.0508" y="730.4199">Nh&#7853;n di&#7879;n k&#253; t&#7921; quang h&#7885;c chuy&#234;n d&#7909;ng cho ti&#7871;ng Nh&#7853;t (`MangaOcr`)</text><rect fill="none" height="190.2031" style="stroke:#000000;stroke-width:1.5;" width="639.0859" x="647.043" y="288.2031"/><path d="M1011.3291,288.2031 L1011.3291,297.5 L1001.3291,307.5 L647.043,307.5" fill="none" style="stroke:#000000;stroke-width:1.5;"/><text fill="#000000" font-family="sans-serif" font-size="14" lengthAdjust="spacing" textLength="354.2861" x="650.043" y="302.1982">Nh&#225;nh x&#7917; l&#253; Webtoon Engine (WebtoonOcrEngine)</text><rect fill="#FFFFFF" height="33.9688" rx="12.5" ry="12.5" style="stroke:#333333;stroke-width:0.5;" width="448.7305" x="742.2207" y="324.5"/><text fill="#000000" font-family="sans-serif" font-size="12" lengthAdjust="spacing" textLength="428.7305" x="752.2207" y="345.6387">Qu&#233;t to&#224;n b&#7897; b&#7873; m&#7863;t &#7843;nh cu&#7897;n d&#7885;c b&#7857;ng m&#244; h&#236;nh tr&#237;ch xu&#7845;t PaddleOCR</text><rect fill="#FFFFFF" height="33.9688" rx="12.5" ry="12.5" style="stroke:#333333;stroke-width:0.5;" width="389" x="772.0859" y="378.4688"/><text fill="#000000" font-family="sans-serif" font-size="12" lengthAdjust="spacing" textLength="369" x="782.0859" y="399.6074">T&#7841;o m&#7863;t n&#7841; nh&#7883; ph&#226;n l&#7845;p &#273;&#7847;y &#273;a gi&#225;c ch&#7919; (`final_solid_mask`)</text><rect fill="#FFFFFF" height="33.9688" rx="12.5" ry="12.5" style="stroke:#333333;stroke-width:0.5;" width="619.0859" x="657.043" y="432.4375"/><text fill="#000000" font-family="sans-serif" font-size="12" lengthAdjust="spacing" textLength="599.0859" x="667.043" y="453.5762">Nh&#243;m c&#225;c &#273;o&#7841;n ch&#7919; r&#7901;i r&#7841;c th&#224;nh kh&#7889;i h&#7897;i tho&#7841;i d&#7921;a tr&#234;n kho&#7843;ng c&#225;ch pixel (`_cluster_text_blocks`)</text><polygon fill="#FFFFFF" points="644.0537,761.25,656.0537,773.25,644.0537,785.25,632.0537,773.25,644.0537,761.25" style="stroke:#333333;stroke-width:0.5;"/><rect fill="none" height="190.2031" style="stroke:#000000;stroke-width:1.5;" width="558.9355" x="364.5859" y="795.25"/><path d="M663.0625,795.25 L663.0625,804.5469 L653.0625,814.5469 L364.5859,814.5469" fill="none" style="stroke:#000000;stroke-width:1.5;"/><text fill="#000000" font-family="sans-serif" font-size="14" lengthAdjust="spacing" textLength="288.4766" x="367.5859" y="809.2451">Kh&#226;u X&#243;a ch&#7919; Kh&#244;i ph&#7909;c N&#7873;n (Inpainting)</text><rect fill="#FFFFFF" height="33.9688" rx="12.5" ry="12.5" style="stroke:#333333;stroke-width:0.5;" width="304.0273" x="492.04" y="831.5469"/><text fill="#000000" font-family="sans-serif" font-size="12" lengthAdjust="spacing" textLength="284.0273" x="502.04" y="852.6855">Chuy&#7875;n &#273;&#7893;i m&#7863;t n&#7841; ch&#7919; sang &#273;&#7883;nh d&#7841;ng &#7843;nh PIL</text><rect fill="#FFFFFF" height="33.9688" rx="12.5" ry="12.5" style="stroke:#333333;stroke-width:0.5;" width="538.9355" x="374.5859" y="885.5156"/><text fill="#000000" font-family="sans-serif" font-size="12" lengthAdjust="spacing" textLength="518.9355" x="384.5859" y="906.6543">Th&#7921;c thi m&#244; h&#236;nh LaMa H&#7885;c s&#226;u (`SimpleLama`) x&#243;a ch&#7919; g&#7889;c v&#224; b&#249; &#273;&#7855;p pixel n&#7873;n s&#7841;ch</text><rect fill="#FFFFFF" height="33.9688" rx="12.5" ry="12.5" style="stroke:#333333;stroke-width:0.5;" width="389.3984" x="449.3545" y="939.4844"/><text fill="#000000" font-family="sans-serif" font-size="12" lengthAdjust="spacing" textLength="369.3984" x="459.3545" y="960.623">T&#7843;i &#7843;nh &#273;&#227; x&#243;a ch&#7919; (`cleaned_img`) l&#234;n MinIO Object Storage</text><polygon fill="#FFFFFF" points="569.4385,1005.4531,718.6689,1005.4531,730.6689,1017.4531,718.6689,1029.4531,569.4385,1029.4531,557.4385,1017.4531,569.4385,1005.4531" style="stroke:#333333;stroke-width:0.5;"/><text fill="#000000" font-family="sans-serif" font-size="11" lengthAdjust="spacing" textLength="149.2305" x="569.4385" y="1021.2612">Ki&#7875;m tra c&#7901; skip_translate?</text><text fill="#000000" font-family="sans-serif" font-size="11" lengthAdjust="spacing" textLength="28.6226" x="528.8159" y="1014.8589">False</text><text fill="#000000" font-family="sans-serif" font-size="11" lengthAdjust="spacing" textLength="24.981" x="730.6689" y="1014.8589">True</text><rect fill="none" height="421.0781" style="stroke:#000000;stroke-width:1.5;" width="587.7578" x="129.019" y="1039.4531"/><path d="M641.3169,1039.4531 L641.3169,1048.75 L631.3169,1058.75 L129.019,1058.75" fill="none" style="stroke:#000000;stroke-width:1.5;"/><text fill="#000000" font-family="sans-serif" font-size="14" lengthAdjust="spacing" textLength="502.2979" x="132.019" y="1053.4482">Ph&#226;n h&#7879; D&#7883;ch thu&#7853;t Ng&#7919; c&#7843;nh v&#224; Ph&#226;n t&#237;ch Ng&#7919; ph&#225;p (MangaTranslator)</text><rect fill="#FFFFFF" height="33.9688" rx="12.5" ry="12.5" style="stroke:#333333;stroke-width:0.5;" width="554.0586" x="145.8687" y="1075.75"/><text fill="#000000" font-family="sans-serif" font-size="12" lengthAdjust="spacing" textLength="534.0586" x="155.8687" y="1096.8887">Kh&#7903;i t&#7841;o s&#417; &#273;&#7891; &#273;&#225;nh d&#7845;u &#273;&#7889;i t&#432;&#7907;ng &#273;&#7891; h&#7885;a b&#7857;ng &#7843;nh Magenta Rectangles (`SomDrawer`)</text><rect fill="#FFFFFF" height="33.9688" rx="12.5" ry="12.5" style="stroke:#333333;stroke-width:0.5;" width="553.5547" x="146.1206" y="1144.7188"/><text fill="#000000" font-family="sans-serif" font-size="12" lengthAdjust="spacing" textLength="533.5547" x="156.1206" y="1165.8574">&#272;&#243;ng g&#243;i danh s&#225;ch v&#259;n b&#7843;n g&#7889;c &#273;&#237;nh k&#232;m m&#7851;u h&#7897;i tho&#7841;i minh h&#7885;a (Few-shot Examples)</text><rect fill="#FFFFFF" height="33.9688" rx="12.5" ry="12.5" style="stroke:#333333;stroke-width:0.5;" width="508.6016" x="168.5972" y="1198.6875"/><text fill="#000000" font-family="sans-serif" font-size="12" lengthAdjust="spacing" textLength="488.6016" x="178.5972" y="1219.8262">G&#7885;i API an to&#224;n k&#7871;t n&#7889;i &#273;&#7871;n m&#244; h&#236;nh GenAI LLM (Gemini) c&#7845;u h&#236;nh trong h&#7879; th&#7889;ng</text><rect fill="#FFFFFF" height="33.9688" rx="12.5" ry="12.5" style="stroke:#333333;stroke-width:0.5;" width="525.8164" x="159.9897" y="1252.6563"/><text fill="#000000" font-family="sans-serif" font-size="12" lengthAdjust="spacing" textLength="505.8164" x="169.9897" y="1273.7949">M&#244; h&#236;nh ph&#226;n t&#237;ch c&#7845;u tr&#250;c t&#7915;, phi&#234;n &#226;m Latinh v&#224; bi&#234;n d&#7883;ch n&#7897;i dung theo ng&#7919; c&#7843;nh</text><rect fill="#FFFFFF" height="33.9688" rx="12.5" ry="12.5" style="stroke:#333333;stroke-width:0.5;" width="567.7578" x="139.019" y="1306.625"/><text fill="#000000" font-family="sans-serif" font-size="12" lengthAdjust="spacing" textLength="547.7578" x="149.019" y="1327.7637">Ph&#226;n gi&#7843;i chu&#7895;i k&#7871;t qu&#7843; JSON ph&#7843;n h&#7891;i &#225;nh x&#7841; c&#7845;u tr&#250;c Pydantic (`BatchTranslationResult`)</text><rect fill="#FFFFFF" height="33.9688" rx="12.5" ry="12.5" style="stroke:#333333;stroke-width:0.5;" width="469.2266" x="188.2847" y="1360.5938"/><text fill="#000000" font-family="sans-serif" font-size="12" lengthAdjust="spacing" textLength="449.2266" x="198.2847" y="1381.7324">Duy&#7879;t danh s&#225;ch k&#7871;t qu&#7843;, c&#7845;u h&#236;nh m&#7843;ng d&#7883;ch thu&#7853;t &#273;a ng&#244;n ng&#7919; t&#225;ch bi&#7879;t</text><rect fill="#FFFFFF" height="33.9688" rx="12.5" ry="12.5" style="stroke:#333333;stroke-width:0.5;" width="503.0293" x="171.3833" y="1414.5625"/><text fill="#000000" font-family="sans-serif" font-size="12" lengthAdjust="spacing" textLength="483.0293" x="181.3833" y="1435.7012">T&#7843;i c&#225;c t&#7879;p tin `trans_{lang}.json` k&#7871;t qu&#7843; l&#234;n ph&#226;n v&#249;ng si&#234;u d&#7919; li&#7879;u c&#7911;a MinIO</text><rect fill="#FFFFFF" height="33.9688" rx="12.5" ry="12.5" style="stroke:#333333;stroke-width:0.5;" width="245.1816" x="742.6187" y="1039.4531"/><text fill="#000000" font-family="sans-serif" font-size="12" lengthAdjust="spacing" textLength="225.1816" x="752.6187" y="1060.5918">B&#7887; qua ti&#7871;n tr&#236;nh d&#7883;ch thu&#7853;t ng&#7919; c&#7843;nh</text><rect fill="#FFFFFF" height="33.9688" rx="12.5" ry="12.5" style="stroke:#333333;stroke-width:0.5;" width="256.8652" x="736.7769" y="1108.4219"/><text fill="#000000" font-family="sans-serif" font-size="12" lengthAdjust="spacing" textLength="236.8652" x="746.7769" y="1129.5605">Kh&#7903;i t&#7841;o m&#7843;ng d&#7883;ch v&#7899;i tr&#7841;ng th&#225;i tr&#7889;ng</text><polygon fill="#FFFFFF" points="644.0537,1466.5313,656.0537,1478.5313,644.0537,1490.5313,632.0537,1478.5313,644.0537,1466.5313" style="stroke:#333333;stroke-width:0.5;"/><rect fill="none" height="244.1719" style="stroke:#000000;stroke-width:1.5;" width="503.1074" x="392.5" y="1500.5313"/><path d="M633.7939,1500.5313 L633.7939,1509.8281 L623.7939,1519.8281 L392.5,1519.8281" fill="none" style="stroke:#000000;stroke-width:1.5;"/><text fill="#000000" font-family="sans-serif" font-size="14" lengthAdjust="spacing" textLength="231.2939" x="395.5" y="1514.5264">Kh&#226;u T&#7853;p k&#7871;t v&#224; &#272;&#7891;ng b&#7897; D&#7919; li&#7879;u</text><rect fill="#FFFFFF" height="33.9688" rx="12.5" ry="12.5" style="stroke:#333333;stroke-width:0.5;" width="442.2207" x="422.9434" y="1536.8281"/><text fill="#000000" font-family="sans-serif" font-size="12" lengthAdjust="spacing" textLength="422.2207" x="432.9434" y="1557.9668">&#272;&#243;ng g&#243;i t&#7879;p t&#7885;a &#273;&#7897; si&#234;u d&#7919; li&#7879;u g&#7889;c ho&#224;n ch&#7881;nh (`original_metadata`)</text><rect fill="#FFFFFF" height="33.9688" rx="12.5" ry="12.5" style="stroke:#333333;stroke-width:0.5;" width="323.9023" x="482.1025" y="1590.7969"/><text fill="#000000" font-family="sans-serif" font-size="12" lengthAdjust="spacing" textLength="303.9023" x="492.1025" y="1611.9355">T&#7843;i t&#7879;p tin `original.json` l&#234;n MinIO Object Storage</text><rect fill="#FFFFFF" height="33.9688" rx="12.5" ry="12.5" style="stroke:#333333;stroke-width:0.5;" width="483.1074" x="402.5" y="1644.7656"/><text fill="#000000" font-family="sans-serif" font-size="12" lengthAdjust="spacing" textLength="463.1074" x="412.5" y="1665.9043">C&#7845;u tr&#250;c g&#243;i Payload ph&#7843;n h&#7891;i k&#7871;t qu&#7843; tr&#7841;ng th&#225;i th&#224;nh c&#244;ng (`COMPLETED`)</text><rect fill="#FFFFFF" height="33.9688" rx="12.5" ry="12.5" style="stroke:#333333;stroke-width:0.5;" width="427.3672" x="430.3701" y="1698.7344"/><text fill="#000000" font-family="sans-serif" font-size="12" lengthAdjust="spacing" textLength="407.3672" x="440.3701" y="1719.873">Th&#7921;c thi HTTP POST g&#7917;i d&#7919; li&#7879;u Webhook ph&#7843;n h&#7891;i v&#7873; Core Backend</text><ellipse cx="644.0537" cy="1775.7031" fill="none" rx="11" ry="11" style="stroke:#222222;stroke-width:1;"/><ellipse cx="644.0537" cy="1775.7031" fill="#222222" rx="6" ry="6" style="stroke:#222222;stroke-width:1;"/><line style="stroke:#333333;stroke-width:1;" x1="644.0537" x2="644.0537" y1="72.2969" y2="92.2969"/><polygon fill="#333333" points="640.0537,82.2969,644.0537,92.2969,648.0537,82.2969,644.0537,86.2969" style="stroke:#333333;stroke-width:1;"/><line style="stroke:#333333;stroke-width:1;" x1="644.0537" x2="644.0537" y1="126.2656" y2="146.2656"/><polygon fill="#333333" points="640.0537,136.2656,644.0537,146.2656,648.0537,136.2656,644.0537,140.2656" style="stroke:#333333;stroke-width:1;"/><line style="stroke:#333333;stroke-width:1;" x1="644.0537" x2="644.0537" y1="180.2344" y2="200.2344"/><polygon fill="#333333" points="640.0537,190.2344,644.0537,200.2344,648.0537,190.2344,644.0537,194.2344" style="stroke:#333333;stroke-width:1;"/><line style="stroke:#333333;stroke-width:1;" x1="321.5215" x2="321.5215" y1="358.4688" y2="378.4688"/><polygon fill="#333333" points="317.5215,368.4688,321.5215,378.4688,325.5215,368.4688,321.5215,372.4688" style="stroke:#333333;stroke-width:1;"/><line style="stroke:#333333;stroke-width:1;" x1="321.5215" x2="321.5215" y1="412.4375" y2="432.4375"/><polygon fill="#333333" points="317.5215,422.4375,321.5215,432.4375,325.5215,422.4375,321.5215,426.4375" style="stroke:#333333;stroke-width:1;"/><line style="stroke:#333333;stroke-width:1;" x1="321.5215" x2="321.5215" y1="466.4063" y2="493.4063"/><polygon fill="#333333" points="317.5215,483.4063,321.5215,493.4063,325.5215,483.4063,321.5215,487.4063" style="stroke:#333333;stroke-width:1;"/><line style="stroke:#333333;stroke-width:1;" x1="321.5215" x2="321.5215" y1="527.375" y2="547.375"/><polygon fill="#333333" points="317.5215,537.375,321.5215,547.375,325.5215,537.375,321.5215,541.375" style="stroke:#333333;stroke-width:1;"/><line style="stroke:#333333;stroke-width:1;" x1="321.5215" x2="321.5215" y1="581.3438" y2="601.3438"/><polygon fill="#333333" points="317.5215,591.3438,321.5215,601.3438,325.5215,591.3438,321.5215,595.3438" style="stroke:#333333;stroke-width:1;"/><line style="stroke:#333333;stroke-width:1;" x1="321.5215" x2="321.5215" y1="635.3125" y2="655.3125"/><polygon fill="#333333" points="317.5215,645.3125,321.5215,655.3125,325.5215,645.3125,321.5215,649.3125" style="stroke:#333333;stroke-width:1;"/><line style="stroke:#333333;stroke-width:1;" x1="321.5215" x2="321.5215" y1="689.2813" y2="709.2813"/><polygon fill="#333333" points="317.5215,699.2813,321.5215,709.2813,325.5215,699.2813,321.5215,703.2813" style="stroke:#333333;stroke-width:1;"/><line style="stroke:#333333;stroke-width:1;" x1="966.5859" x2="966.5859" y1="358.4688" y2="378.4688"/><polygon fill="#333333" points="962.5859,368.4688,966.5859,378.4688,970.5859,368.4688,966.5859,372.4688" style="stroke:#333333;stroke-width:1;"/><line style="stroke:#333333;stroke-width:1;" x1="966.5859" x2="966.5859" y1="412.4375" y2="432.4375"/><polygon fill="#333333" points="962.5859,422.4375,966.5859,432.4375,970.5859,422.4375,966.5859,426.4375" style="stroke:#333333;stroke-width:1;"/><line style="stroke:#333333;stroke-width:1;" x1="493.8662" x2="321.5215" y1="266.2031" y2="266.2031"/><line style="stroke:#333333;stroke-width:1;" x1="321.5215" x2="321.5215" y1="266.2031" y2="324.5"/><polygon fill="#333333" points="317.5215,314.5,321.5215,324.5,325.5215,314.5,321.5215,318.5" style="stroke:#333333;stroke-width:1;"/><line style="stroke:#333333;stroke-width:1;" x1="794.2412" x2="966.5859" y1="266.2031" y2="266.2031"/><line style="stroke:#333333;stroke-width:1;" x1="966.5859" x2="966.5859" y1="266.2031" y2="324.5"/><polygon fill="#333333" points="962.5859,314.5,966.5859,324.5,970.5859,314.5,966.5859,318.5" style="stroke:#333333;stroke-width:1;"/><line style="stroke:#333333;stroke-width:1;" x1="321.5215" x2="321.5215" y1="743.25" y2="773.25"/><line style="stroke:#333333;stroke-width:1;" x1="321.5215" x2="632.0537" y1="773.25" y2="773.25"/><polygon fill="#333333" points="622.0537,769.25,632.0537,773.25,622.0537,777.25,626.0537,773.25" style="stroke:#333333;stroke-width:1;"/><line style="stroke:#333333;stroke-width:1;" x1="966.5859" x2="966.5859" y1="466.4063" y2="773.25"/><line style="stroke:#333333;stroke-width:1;" x1="966.5859" x2="656.0537" y1="773.25" y2="773.25"/><polygon fill="#333333" points="666.0537,769.25,656.0537,773.25,666.0537,777.25,662.0537,773.25" style="stroke:#333333;stroke-width:1;"/><line style="stroke:#333333;stroke-width:1;" x1="644.0537" x2="644.0537" y1="234.2031" y2="254.2031"/><polygon fill="#333333" points="640.0537,244.2031,644.0537,254.2031,648.0537,244.2031,644.0537,248.2031" style="stroke:#333333;stroke-width:1;"/><line style="stroke:#333333;stroke-width:1;" x1="644.0537" x2="644.0537" y1="865.5156" y2="885.5156"/><polygon fill="#333333" points="640.0537,875.5156,644.0537,885.5156,648.0537,875.5156,644.0537,879.5156" style="stroke:#333333;stroke-width:1;"/><line style="stroke:#333333;stroke-width:1;" x1="644.0537" x2="644.0537" y1="919.4844" y2="939.4844"/><polygon fill="#333333" points="640.0537,929.4844,644.0537,939.4844,648.0537,929.4844,644.0537,933.4844" style="stroke:#333333;stroke-width:1;"/><line style="stroke:#333333;stroke-width:1;" x1="644.0537" x2="644.0537" y1="785.25" y2="831.5469"/><polygon fill="#333333" points="640.0537,821.5469,644.0537,831.5469,648.0537,821.5469,644.0537,825.5469" style="stroke:#333333;stroke-width:1;"/><line style="stroke:#333333;stroke-width:1;" x1="422.8979" x2="422.8979" y1="1109.7188" y2="1144.7188"/><polygon fill="#333333" points="418.8979,1134.7188,422.8979,1144.7188,426.8979,1134.7188,422.8979,1138.7188" style="stroke:#333333;stroke-width:1;"/><line style="stroke:#333333;stroke-width:1;" x1="422.8979" x2="422.8979" y1="1178.6875" y2="1198.6875"/><polygon fill="#333333" points="418.8979,1188.6875,422.8979,1198.6875,426.8979,1188.6875,422.8979,1192.6875" style="stroke:#333333;stroke-width:1;"/><line style="stroke:#333333;stroke-width:1;" x1="422.8979" x2="422.8979" y1="1232.6563" y2="1252.6563"/><polygon fill="#333333" points="418.8979,1242.6563,422.8979,1252.6563,426.8979,1242.6563,422.8979,1246.6563" style="stroke:#333333;stroke-width:1;"/><line style="stroke:#333333;stroke-width:1;" x1="422.8979" x2="422.8979" y1="1286.625" y2="1306.625"/><polygon fill="#333333" points="418.8979,1296.625,422.8979,1306.625,426.8979,1296.625,422.8979,1300.625" style="stroke:#333333;stroke-width:1;"/><line style="stroke:#333333;stroke-width:1;" x1="422.8979" x2="422.8979" y1="1340.5938" y2="1360.5938"/><polygon fill="#333333" points="418.8979,1350.5938,422.8979,1360.5938,426.8979,1350.5938,422.8979,1354.5938" style="stroke:#333333;stroke-width:1;"/><line style="stroke:#333333;stroke-width:1;" x1="422.8979" x2="422.8979" y1="1394.5625" y2="1414.5625"/><polygon fill="#333333" points="418.8979,1404.5625,422.8979,1414.5625,426.8979,1404.5625,422.8979,1408.5625" style="stroke:#333333;stroke-width:1;"/><line style="stroke:#333333;stroke-width:1;" x1="865.2095" x2="865.2095" y1="1073.4219" y2="1108.4219"/><polygon fill="#333333" points="861.2095,1098.4219,865.2095,1108.4219,869.2095,1098.4219,865.2095,1102.4219" style="stroke:#333333;stroke-width:1;"/><line style="stroke:#333333;stroke-width:1;" x1="557.4385" x2="422.8979" y1="1017.4531" y2="1017.4531"/><line style="stroke:#333333;stroke-width:1;" x1="422.8979" x2="422.8979" y1="1017.4531" y2="1075.75"/><polygon fill="#333333" points="418.8979,1065.75,422.8979,1075.75,426.8979,1065.75,422.8979,1069.75" style="stroke:#333333;stroke-width:1;"/><line style="stroke:#333333;stroke-width:1;" x1="730.6689" x2="865.2095" y1="1017.4531" y2="1017.4531"/><line style="stroke:#333333;stroke-width:1;" x1="865.2095" x2="865.2095" y1="1017.4531" y2="1039.4531"/><polygon fill="#333333" points="861.2095,1029.4531,865.2095,1039.4531,869.2095,1029.4531,865.2095,1033.4531" style="stroke:#333333;stroke-width:1;"/><line style="stroke:#333333;stroke-width:1;" x1="422.8979" x2="422.8979" y1="1448.5313" y2="1478.5313"/><line style="stroke:#333333;stroke-width:1;" x1="422.8979" x2="632.0537" y1="1478.5313" y2="1478.5313"/><polygon fill="#333333" points="622.0537,1474.5313,632.0537,1478.5313,622.0537,1482.5313,626.0537,1478.5313" style="stroke:#333333;stroke-width:1;"/><line style="stroke:#333333;stroke-width:1;" x1="865.2095" x2="865.2095" y1="1142.3906" y2="1478.5313"/><line style="stroke:#333333;stroke-width:1;" x1="865.2095" x2="656.0537" y1="1478.5313" y2="1478.5313"/><polygon fill="#333333" points="666.0537,1474.5313,656.0537,1478.5313,666.0537,1482.5313,662.0537,1478.5313" style="stroke:#333333;stroke-width:1;"/><line style="stroke:#333333;stroke-width:1;" x1="644.0537" x2="644.0537" y1="973.4531" y2="1005.4531"/><polygon fill="#333333" points="640.0537,995.4531,644.0537,1005.4531,648.0537,995.4531,644.0537,999.4531" style="stroke:#333333;stroke-width:1;"/><line style="stroke:#333333;stroke-width:1;" x1="644.0537" x2="644.0537" y1="1570.7969" y2="1590.7969"/><polygon fill="#333333" points="640.0537,1580.7969,644.0537,1590.7969,648.0537,1580.7969,644.0537,1584.7969" style="stroke:#333333;stroke-width:1;"/><line style="stroke:#333333;stroke-width:1;" x1="644.0537" x2="644.0537" y1="1624.7656" y2="1644.7656"/><polygon fill="#333333" points="640.0537,1634.7656,644.0537,1644.7656,648.0537,1634.7656,644.0537,1638.7656" style="stroke:#333333;stroke-width:1;"/><line style="stroke:#333333;stroke-width:1;" x1="644.0537" x2="644.0537" y1="1678.7344" y2="1698.7344"/><polygon fill="#333333" points="640.0537,1688.7344,644.0537,1698.7344,648.0537,1688.7344,644.0537,1692.7344" style="stroke:#333333;stroke-width:1;"/><line style="stroke:#333333;stroke-width:1;" x1="644.0537" x2="644.0537" y1="1490.5313" y2="1536.8281"/><polygon fill="#333333" points="640.0537,1526.8281,644.0537,1536.8281,648.0537,1526.8281,644.0537,1530.8281" style="stroke:#333333;stroke-width:1;"/><line style="stroke:#333333;stroke-width:1;" x1="644.0537" x2="644.0537" y1="1732.7031" y2="1764.7031"/><polygon fill="#333333" points="640.0537,1754.7031,644.0537,1764.7031,648.0537,1754.7031,644.0537,1758.7031" style="stroke:#333333;stroke-width:1;"/><?plantuml-src XLVFRnD75BxxhnZHYoC1QkajELJv1QGaiKci0YTxl5wyWtTdbjtP91RYW7905K8bGbM5ggg4AA8K8eY2L64BSLYB_sF_atvlPkti9W5yIBoUcVVUzxxllJSRzuGCUSG3rkY7xhoIiOwua7ezv8wGNVPz9Pxic5T1gAIBHTttNPO4_gN2wgoZnORG_JdkzBgHIcHdNlagOjzTDf-pTggeuqRvhX_DfxWhYjHcUR6YXORZEP4DjnCssic6Jvcdii6kDW_F4A-J3LzoDdho-Lqs_0lFsN07VsUNs0qLzTo8rKNe-aAwh3eRzwNZHKgg9AODzKWvRXm3z5Ib4ciUwKfbUjNB1WUIQIzz3pEZ7NX-6BAVrskhhCxxlk8TfhFXQ-Qbpycv1wTiZRVRGgzSPzLMm6MNNxYRk8dRcfgfJ3UomPwW4p2YXMHub1xJKTB7Jt0JSJns4RDZpQu8kLHZ6zdm0KBu_8u5sN2VbWQx0I75zpPWm_0rUFvRc1LbSh631yh17iBIwQv3HlPP9nk-PJw1I71-i9_0PJfmM2lCqz8CBQhMJAKYRhFgDKfrG84XW0I-u3qzG92E2eJJrD2CSVS8FtNWdBpbQ7wQmX5Nigf9mbI5uGDcGQ5GafrRzT9T7DhAXWVCJp-o5Th55cNNa6EUQavadwVEiNlcF7t6d7I4oTb6-foWlDNC8PZf-poBawIsiy4XmWgmugLli7AhjbpR-E4IwAbpwVeBhdOThI8YQEAZZkWqywmBOpZqqXVaxGDi8TdFGA2HdXWxQ3NSBJqnLh2rZkX201ryeZFPy1LnUyZQ2eVQwH6bBBU4V2dcgwueu21ybFh1WMPQ8MVivYqsdsY4FqT51htEgQrr5Mct3671uDViRiADcE2dvnbXbCCVxHYT68GJp0Kx1GbOz6sH_YkDrj-IgRsG-JY2U2W1UHMfwAA8cnlS5vscni_DoEs2zbA0lsI3ZxbtgjGD-7aWS-kagUrSpa4s-4ypYUzCmj-Zd8fgwxQGt6_6Yfm4FEwLh3UYzC21lf2vVMrL4gamhpYoyvk1y8gVGSJCbyJMWr0DUKYgrS5Z1sQIFiMCujetJK2Xji4slflJHDLOp-CGxrTSFuREDzssLaf-ipfks7sJ-iYVlr0XrvFqbL7BSsaQ1FrvaEVH9i2XMZOXFtPELuWkvQxEEntVhSsl5RFxDMPy70k9mi7BFlvnrXLKGLOntw0Dm8y2Mt6Z7I9ZhBG8AX7uEy2AfdRh5UKi9d86f4DE2C18ZtwZ3aZsF1QABTT704t7JsAKYrLcsrTEBouGWvgwNQaKoBW6L0cxcHxnF1Ryy5u0hEd0gqQsrIMCBSnD6XzZBgRdFQh1RIldtqKnNzPGpCrKAVLFIr1zQTa6DDt0paF2B0eCBVCLpguQzc8AhjfQ5q7ekyiyuAqfjdKSgvqcfFzs-i6GWcPaCo5Dv36br1ixCmFAXZ3QIVUAbgejntVHCJjD4NJXnASKsmbLQzz1ssFhw7oywyvKxf-Q7WvDHWpti4bjBVQvTYS3uZ97BPmgWRhHaaUjPG490d_ZDhZQfN0S6oKXirkr4QrTf5uMvcEaaJjKKRbAIZCp_hoRNoW0UzUoiP-S6gNvdGE9v-EoiM6i0BVKdAqX3t3gkp5neeA5Y6-UQCoZ9wRNTDCZg9LQV6pKkJ7QDiDgJ-QS8H2QjBtqdu2KypeveVH0ODM6KhtiRbw8FQNPuXOd7SH5XrUmHx3P-XBZCkyAFVGdKYA18qryaWLnNN4bxaFBookiUiM55p6LNnR6tK7PtlVGZ3FShmg-LYPMmW8fnRi6pQBpM3LzFdqHGCjQv4JQvj-nT4k3jfEOlep1A0kqbqSr_7I5KQv3bvG_H8xlBlIoPszhA5RABE9zAbZUMwaC2u7L-s13O_PYidBjU6FTG8rhRfpu-ipnMc2muFHyAME1xKATieofCyekBfOvCcsCj6dIw7Ah9M3K4OylZYrJHSrxFhHs_-AT6AErXDdKPl7A4YEpoOdx7zsKJVsMPr8ZIl9gd9wZCMak46QWKQBUcDee0JbDJBcsol1n4VqJAr5-MqIXcYUheoyrNoJX8CmHab16Jq0aZMsQRWl7g2QjjrXaUTfCfPZtX3EoOKlECyL1xUvNmAosL2IwPbe5hkOThlbO0gTkyfEjEHbVQOvsD1I4Pu8SlqwKX5gaz4J6x0Xqp7j9jJLVMwalBpOM5uu3F1uRLnkDEglNrXk4ya2KSECYuIdLAxirBnppAiAh5bxcm8dfwB5MuVy0?></g></svg>