<svg zoomAndPan="magnify" viewBox="0 0 699.6956521739131 792.5279999999999" version="1.1" style="max-height: 500px" preserveAspectRatio="none" data-diagram-type="ACTIVITY" xmlns:xlink="http://www.w3.org/1999/xlink" xmlns="http://www.w3.org/2000/svg" width="699.6956521739131" height="792.5279999999999"><defs/><g><g data-source-line="7" class="title"><text y="32.9951" x="212.696" textLength="266.5605" lengthAdjust="spacing" font-weight="700" font-size="14" font-family="sans-serif" fill="#000000">Biểu đồ hoạt động của AI Pipeline</text></g><ellipse style="stroke:#222222;stroke-width:1;" ry="10" rx="10" fill="#222222" cy="62.2969" cx="357.7363"/><rect y="92.2969" x="255.8818" width="203.709" style="stroke:#333333;stroke-width:0.5;" ry="12.5" rx="12.5" height="33.9688" fill="#FFFFFF"/><text y="113.4355" x="265.8818" textLength="183.709" lengthAdjust="spacing" font-size="12" font-family="sans-serif" fill="#000000">Nhận Job Payload từ RabbitMQ</text><rect y="146.2656" x="214.5205" width="286.4316" style="stroke:#333333;stroke-width:0.5;" ry="12.5" rx="12.5" height="33.9688" fill="#FFFFFF"/><text y="167.4043" x="224.5205" textLength="266.4316" lengthAdjust="spacing" font-size="12" font-family="sans-serif" fill="#000000">Tải ảnh truyện gốc từ MinIO về thư mục tạm</text><rect y="200.2344" x="297.3428" width="120.7871" style="stroke:#333333;stroke-width:0.5;" ry="12.5" rx="12.5" height="33.9688" fill="#FFFFFF"/><text y="221.373" x="307.3428" textLength="100.7871" lengthAdjust="spacing" font-size="12" font-family="sans-serif" fill="#000000">Khởi tạo pipeline</text><polygon style="stroke:#333333;stroke-width:0.5;" points="298.3213,254.2031,417.1514,254.2031,429.1514,266.2031,417.1514,278.2031,298.3213,278.2031,286.3213,266.2031,298.3213,254.2031" fill="#FFFFFF"/><text y="270.0112" x="298.3213" textLength="118.8301" lengthAdjust="spacing" font-size="11" font-family="sans-serif" fill="#000000">Kiểm tra comic_type?</text><text y="263.6089" x="248.1704" textLength="38.1509" lengthAdjust="spacing" font-size="11" font-family="sans-serif" fill="#000000">manga</text><text y="263.6089" x="429.1514" textLength="47.4912" lengthAdjust="spacing" font-size="11" font-family="sans-serif" fill="#000000">webtoon</text><rect y="288.2031" x="21.1147" width="336.8242" style="stroke:#000000;stroke-width:1.5;" height="481.0156" fill="none"/><path style="stroke:#000000;stroke-width:1.5;" fill="none" d="M166.4663,288.2031 L166.4663,297.5 L156.4663,307.5 L21.1147,307.5"/><text y="302.1982" x="24.1147" textLength="135.3516" lengthAdjust="spacing" font-size="14" font-family="sans-serif" fill="#000000">Nhánh xử lý Manga</text><rect y="324.5" x="97.9644" width="183.125" style="stroke:#333333;stroke-width:0.5;" ry="12.5" rx="12.5" height="33.9688" fill="#FFFFFF"/><text y="345.6387" x="107.9644" textLength="163.125" lengthAdjust="spacing" font-size="12" font-family="sans-serif" fill="#000000">Nhận diện và cắt các Panel</text><rect y="378.4688" x="56.6235" width="265.8066" style="stroke:#333333;stroke-width:0.5;" ry="12.5" rx="12.5" height="33.9688" fill="#FFFFFF"/><text y="399.6074" x="66.6235" textLength="245.8066" lengthAdjust="spacing" font-size="12" font-family="sans-serif" fill="#000000">Phát hiện hộp thoại bằng `TextDetector`</text><rect y="432.4375" x="68.8491" width="241.3555" style="stroke:#333333;stroke-width:0.5;" ry="12.5" rx="12.5" height="47.9375" fill="#FFFFFF"/><text y="453.5762" x="78.8491" textLength="221.3555" lengthAdjust="spacing" font-size="12" font-family="sans-serif" fill="#000000">Sắp xếp thứ tự bong bóng thoại theo</text><text y="467.5449" x="78.8491" textLength="204.1465" lengthAdjust="spacing" font-size="12" font-family="sans-serif" fill="#000000">logic ô tranh và thuật toán XY Cut</text><rect y="507.375" x="40.9438" width="297.166" style="stroke:#333333;stroke-width:0.5;" ry="12.5" rx="12.5" height="33.9688" fill="#FFFFFF"/><text y="528.5137" x="50.9438" textLength="277.166" lengthAdjust="spacing" font-size="12" font-family="sans-serif" fill="#000000">Duyệt qua từng khối hộp thoại được phát hiện</text><rect y="561.3438" x="88.9702" width="201.1133" style="stroke:#333333;stroke-width:0.5;" ry="12.5" rx="12.5" height="33.9688" fill="#FFFFFF"/><text y="582.4824" x="98.9702" textLength="181.1133" lengthAdjust="spacing" font-size="12" font-family="sans-serif" fill="#000000">Kiểm tra vùng biên chữ hợp lệ</text><rect y="615.3125" x="49.0737" width="280.9063" style="stroke:#333333;stroke-width:0.5;" ry="12.5" rx="12.5" height="33.9688" fill="#FFFFFF"/><text y="636.4512" x="59.0737" textLength="260.9063" lengthAdjust="spacing" font-size="12" font-family="sans-serif" fill="#000000">Vẽ đường viền biên để tạo mặt nạ nhị phân</text><rect y="669.2813" x="31.1147" width="316.8242" style="stroke:#333333;stroke-width:0.5;" ry="12.5" rx="12.5" height="33.9688" fill="#FFFFFF"/><text y="690.4199" x="41.1147" textLength="296.8242" lengthAdjust="spacing" font-size="12" font-family="sans-serif" fill="#000000">Trích xuất và crop ảnh nhỏ chứa bong bóng thoại</text><rect y="723.25" x="132.9888" width="113.0762" style="stroke:#333333;stroke-width:0.5;" ry="12.5" rx="12.5" height="33.9688" fill="#FFFFFF"/><text y="744.3887" x="142.9888" textLength="93.0762" lengthAdjust="spacing" font-size="12" font-family="sans-serif" fill="#000000">OCR tiếng Nhật</text><rect y="288.2031" x="377.939" width="296.0137" style="stroke:#000000;stroke-width:1.5;" height="204.1719" fill="none"/><path style="stroke:#000000;stroke-width:1.5;" fill="none" d="M539.1294,288.2031 L539.1294,297.5 L529.1294,307.5 L377.939,307.5"/><text y="302.1982" x="380.939" textLength="151.1904" lengthAdjust="spacing" font-size="14" font-family="sans-serif" fill="#000000">Nhánh xử lý Webtoon</text><rect y="324.5" x="387.939" width="276.0137" style="stroke:#333333;stroke-width:0.5;" ry="12.5" rx="12.5" height="33.9688" fill="#FFFFFF"/><text y="345.6387" x="397.939" textLength="256.0137" lengthAdjust="spacing" font-size="12" font-family="sans-serif" fill="#000000">Quét toàn bộ bề mặt ảnh bằng PaddleOCR</text><rect y="378.4688" x="402.2505" width="247.3906" style="stroke:#333333;stroke-width:0.5;" ry="12.5" rx="12.5" height="33.9688" fill="#FFFFFF"/><text y="399.6074" x="412.2505" textLength="227.3906" lengthAdjust="spacing" font-size="12" font-family="sans-serif" fill="#000000">Tạo mặt nạ nhị phân lấp đầy khối chữ</text><rect y="432.4375" x="401.3511" width="249.1895" style="stroke:#333333;stroke-width:0.5;" ry="12.5" rx="12.5" height="47.9375" fill="#FFFFFF"/><text y="453.5762" x="411.3511" textLength="229.1895" lengthAdjust="spacing" font-size="12" font-family="sans-serif" fill="#000000">Nhóm các đoạn chữ rời rạc thành khối</text><text y="467.5449" x="411.3511" textLength="220.1074" lengthAdjust="spacing" font-size="12" font-family="sans-serif" fill="#000000">hội thoại dựa trên khoảng cách pixel</text><polygon style="stroke:#333333;stroke-width:0.5;" points="357.7363,775.2188,369.7363,787.2188,357.7363,799.2188,345.7363,787.2188,357.7363,775.2188" fill="#FFFFFF"/><rect y="809.2188" x="162.8662" width="389.7402" style="stroke:#000000;stroke-width:1.5;" height="190.2031" fill="none"/><path style="stroke:#000000;stroke-width:1.5;" fill="none" d="M332.9707,809.2188 L332.9707,818.5156 L322.9707,828.5156 L162.8662,828.5156"/><text y="823.2139" x="165.8662" textLength="160.1045" lengthAdjust="spacing" font-size="14" font-family="sans-serif" fill="#000000">Xóa chữ khôi phục nền</text><rect y="845.5156" x="205.7227" width="304.0273" style="stroke:#333333;stroke-width:0.5;" ry="12.5" rx="12.5" height="33.9688" fill="#FFFFFF"/><text y="866.6543" x="215.7227" textLength="284.0273" lengthAdjust="spacing" font-size="12" font-family="sans-serif" fill="#000000">Chuyển đổi mặt nạ chữ sang định dạng ảnh PIL</text><rect y="899.4844" x="172.8662" width="369.7402" style="stroke:#333333;stroke-width:0.5;" ry="12.5" rx="12.5" height="33.9688" fill="#FFFFFF"/><text y="920.623" x="182.8662" textLength="349.7402" lengthAdjust="spacing" font-size="12" font-family="sans-serif" fill="#000000">Chạy mô hình LaMa xóa chữ gốc và bù đắp pixel nền sạch</text><rect y="953.4531" x="209.8682" width="295.7363" style="stroke:#333333;stroke-width:0.5;" ry="12.5" rx="12.5" height="33.9688" fill="#FFFFFF"/><text y="974.5918" x="219.8682" textLength="275.7363" lengthAdjust="spacing" font-size="12" font-family="sans-serif" fill="#000000">Tải ảnh đã xóa chữ (`cleaned_img`) lên MinIO</text><polygon style="stroke:#333333;stroke-width:0.5;" points="283.1211,1019.4219,432.3516,1019.4219,444.3516,1031.4219,432.3516,1043.4219,283.1211,1043.4219,271.1211,1031.4219,283.1211,1019.4219" fill="#FFFFFF"/><text y="1035.23" x="283.1211" textLength="149.2305" lengthAdjust="spacing" font-size="11" font-family="sans-serif" fill="#000000">Kiểm tra cờ skip_translate?</text><text y="1028.8276" x="242.4985" textLength="28.6226" lengthAdjust="spacing" font-size="11" font-family="sans-serif" fill="#000000">False</text><text y="1028.8276" x="444.3516" textLength="24.981" lengthAdjust="spacing" font-size="11" font-family="sans-serif" fill="#000000">True</text><rect y="1053.4219" x="16" width="356.6934" style="stroke:#000000;stroke-width:1.5;" height="259.1719" fill="none"/><path style="stroke:#000000;stroke-width:1.5;" fill="none" d="M98.9941,1053.4219 L98.9941,1062.7188 L88.9941,1072.7188 L16,1072.7188"/><text y="1067.417" x="19" textLength="72.9941" lengthAdjust="spacing" font-size="14" font-family="sans-serif" fill="#000000">Dịch thuật</text><rect y="1089.7188" x="34.6719" width="319.3496" style="stroke:#333333;stroke-width:0.5;" ry="12.5" rx="12.5" height="33.9688" fill="#FFFFFF"/><text y="1110.8574" x="44.6719" textLength="299.3496" lengthAdjust="spacing" font-size="12" font-family="sans-serif" fill="#000000">Tạo ảnh State-of-Mark (SoM) để chuẩn bị cho LLM</text><rect y="1158.6875" x="107.3809" width="173.9316" style="stroke:#333333;stroke-width:0.5;" ry="12.5" rx="12.5" height="33.9688" fill="#FFFFFF"/><text y="1179.8262" x="117.3809" textLength="153.9316" lengthAdjust="spacing" font-size="12" font-family="sans-serif" fill="#000000">Chuẩn bị prompt cho LLM</text><rect y="1212.6563" x="81.6641" width="225.3652" style="stroke:#333333;stroke-width:0.5;" ry="12.5" rx="12.5" height="33.9688" fill="#FFFFFF"/><text y="1233.7949" x="91.6641" textLength="205.3652" lengthAdjust="spacing" font-size="12" font-family="sans-serif" fill="#000000">Gọi API đến mô hình LLM (Gemini)</text><rect y="1266.625" x="26" width="336.6934" style="stroke:#333333;stroke-width:0.5;" ry="12.5" rx="12.5" height="33.9688" fill="#FFFFFF"/><text y="1287.7637" x="36" textLength="316.6934" lengthAdjust="spacing" font-size="12" font-family="sans-serif" fill="#000000">Duyệt kết quả và tải tệp trans_{lang}.json lên MinIO</text><rect y="1053.4219" x="398.5352" width="245.1816" style="stroke:#333333;stroke-width:0.5;" ry="12.5" rx="12.5" height="33.9688" fill="#FFFFFF"/><text y="1074.5605" x="408.5352" textLength="225.1816" lengthAdjust="spacing" font-size="12" font-family="sans-serif" fill="#000000">Bỏ qua tiến trình dịch thuật ngữ cảnh</text><rect y="1122.3906" x="392.6934" width="256.8652" style="stroke:#333333;stroke-width:0.5;" ry="12.5" rx="12.5" height="33.9688" fill="#FFFFFF"/><text y="1143.5293" x="402.6934" textLength="236.8652" lengthAdjust="spacing" font-size="12" font-family="sans-serif" fill="#000000">Khởi tạo mảng dịch với trạng thái trống</text><polygon style="stroke:#333333;stroke-width:0.5;" points="357.7363,1318.5938,369.7363,1330.5938,357.7363,1342.5938,345.7363,1330.5938,357.7363,1318.5938" fill="#FFFFFF"/><rect y="1352.5938" x="160.2588" width="394.9551" style="stroke:#000000;stroke-width:1.5;" height="258.1406" fill="none"/><path style="stroke:#000000;stroke-width:1.5;" fill="none" d="M401.5527,1352.5938 L401.5527,1361.8906 L391.5527,1371.8906 L160.2588,1371.8906"/><text y="1366.5889" x="163.2588" textLength="231.2939" lengthAdjust="spacing" font-size="14" font-family="sans-serif" fill="#000000">Khâu Tập kết và Đồng bộ Dữ liệu</text><rect y="1388.8906" x="246.5771" width="222.3184" style="stroke:#333333;stroke-width:0.5;" ry="12.5" rx="12.5" height="33.9688" fill="#FFFFFF"/><text y="1410.0293" x="256.5771" textLength="202.3184" lengthAdjust="spacing" font-size="12" font-family="sans-serif" fill="#000000">Đóng gói tệp `original_metadata`</text><rect y="1442.8594" x="195.7852" width="323.9023" style="stroke:#333333;stroke-width:0.5;" ry="12.5" rx="12.5" height="33.9688" fill="#FFFFFF"/><text y="1463.998" x="205.7852" textLength="303.9023" lengthAdjust="spacing" font-size="12" font-family="sans-serif" fill="#000000">Tải tệp tin `original.json` lên MinIO Object Storage</text><rect y="1496.8281" x="232.8838" width="249.7051" style="stroke:#333333;stroke-width:0.5;" ry="12.5" rx="12.5" height="47.9375" fill="#FFFFFF"/><text y="1517.9668" x="242.8838" textLength="229.5879" lengthAdjust="spacing" font-size="12" font-family="sans-serif" fill="#000000">Cấu trúc gói Payload phản hồi kết quả</text><text y="1531.9355" x="242.8838" textLength="229.7051" lengthAdjust="spacing" font-size="12" font-family="sans-serif" fill="#000000">trạng thái thành công (`COMPLETED`)</text><rect y="1564.7656" x="170.2588" width="374.9551" style="stroke:#333333;stroke-width:0.5;" ry="12.5" rx="12.5" height="33.9688" fill="#FFFFFF"/><text y="1585.9043" x="180.2588" textLength="354.9551" lengthAdjust="spacing" font-size="12" font-family="sans-serif" fill="#000000">HTTP POST gửi dữ liệu Webhook phản hồi về Core Backend</text><ellipse style="stroke:#222222;stroke-width:1;" ry="11" rx="11" fill="none" cy="1641.7344" cx="357.7363"/><ellipse style="stroke:#222222;stroke-width:1;" ry="6" rx="6" fill="#222222" cy="1641.7344" cx="357.7363"/><line y2="92.2969" y1="72.2969" x2="357.7363" x1="357.7363" style="stroke:#333333;stroke-width:1;"/><polygon style="stroke:#333333;stroke-width:1;" points="353.7363,82.2969,357.7363,92.2969,361.7363,82.2969,357.7363,86.2969" fill="#333333"/><line y2="146.2656" y1="126.2656" x2="357.7363" x1="357.7363" style="stroke:#333333;stroke-width:1;"/><polygon style="stroke:#333333;stroke-width:1;" points="353.7363,136.2656,357.7363,146.2656,361.7363,136.2656,357.7363,140.2656" fill="#333333"/><line y2="200.2344" y1="180.2344" x2="357.7363" x1="357.7363" style="stroke:#333333;stroke-width:1;"/><polygon style="stroke:#333333;stroke-width:1;" points="353.7363,190.2344,357.7363,200.2344,361.7363,190.2344,357.7363,194.2344" fill="#333333"/><line y2="378.4688" y1="358.4688" x2="189.5269" x1="189.5269" style="stroke:#333333;stroke-width:1;"/><polygon style="stroke:#333333;stroke-width:1;" points="185.5269,368.4688,189.5269,378.4688,193.5269,368.4688,189.5269,372.4688" fill="#333333"/><line y2="432.4375" y1="412.4375" x2="189.5269" x1="189.5269" style="stroke:#333333;stroke-width:1;"/><polygon style="stroke:#333333;stroke-width:1;" points="185.5269,422.4375,189.5269,432.4375,193.5269,422.4375,189.5269,426.4375" fill="#333333"/><line y2="507.375" y1="480.375" x2="189.5269" x1="189.5269" style="stroke:#333333;stroke-width:1;"/><polygon style="stroke:#333333;stroke-width:1;" points="185.5269,497.375,189.5269,507.375,193.5269,497.375,189.5269,501.375" fill="#333333"/><line y2="561.3438" y1="541.3438" x2="189.5269" x1="189.5269" style="stroke:#333333;stroke-width:1;"/><polygon style="stroke:#333333;stroke-width:1;" points="185.5269,551.3438,189.5269,561.3438,193.5269,551.3438,189.5269,555.3438" fill="#333333"/><line y2="615.3125" y1="595.3125" x2="189.5269" x1="189.5269" style="stroke:#333333;stroke-width:1;"/><polygon style="stroke:#333333;stroke-width:1;" points="185.5269,605.3125,189.5269,615.3125,193.5269,605.3125,189.5269,609.3125" fill="#333333"/><line y2="669.2813" y1="649.2813" x2="189.5269" x1="189.5269" style="stroke:#333333;stroke-width:1;"/><polygon style="stroke:#333333;stroke-width:1;" points="185.5269,659.2813,189.5269,669.2813,193.5269,659.2813,189.5269,663.2813" fill="#333333"/><line y2="723.25" y1="703.25" x2="189.5269" x1="189.5269" style="stroke:#333333;stroke-width:1;"/><polygon style="stroke:#333333;stroke-width:1;" points="185.5269,713.25,189.5269,723.25,193.5269,713.25,189.5269,717.25" fill="#333333"/><line y2="378.4688" y1="358.4688" x2="525.9458" x1="525.9458" style="stroke:#333333;stroke-width:1;"/><polygon style="stroke:#333333;stroke-width:1;" points="521.9458,368.4688,525.9458,378.4688,529.9458,368.4688,525.9458,372.4688" fill="#333333"/><line y2="432.4375" y1="412.4375" x2="525.9458" x1="525.9458" style="stroke:#333333;stroke-width:1;"/><polygon style="stroke:#333333;stroke-width:1;" points="521.9458,422.4375,525.9458,432.4375,529.9458,422.4375,525.9458,426.4375" fill="#333333"/><line y2="266.2031" y1="266.2031" x2="189.5269" x1="286.3213" style="stroke:#333333;stroke-width:1;"/><line y2="324.5" y1="266.2031" x2="189.5269" x1="189.5269" style="stroke:#333333;stroke-width:1;"/><polygon style="stroke:#333333;stroke-width:1;" points="185.5269,314.5,189.5269,324.5,193.5269,314.5,189.5269,318.5" fill="#333333"/><line y2="266.2031" y1="266.2031" x2="525.9458" x1="429.1514" style="stroke:#333333;stroke-width:1;"/><line y2="324.5" y1="266.2031" x2="525.9458" x1="525.9458" style="stroke:#333333;stroke-width:1;"/><polygon style="stroke:#333333;stroke-width:1;" points="521.9458,314.5,525.9458,324.5,529.9458,314.5,525.9458,318.5" fill="#333333"/><line y2="787.2188" y1="757.2188" x2="189.5269" x1="189.5269" style="stroke:#333333;stroke-width:1;"/><line y2="787.2188" y1="787.2188" x2="345.7363" x1="189.5269" style="stroke:#333333;stroke-width:1;"/><polygon style="stroke:#333333;stroke-width:1;" points="335.7363,783.2188,345.7363,787.2188,335.7363,791.2188,339.7363,787.2188" fill="#333333"/><line y2="787.2188" y1="480.375" x2="525.9458" x1="525.9458" style="stroke:#333333;stroke-width:1;"/><line y2="787.2188" y1="787.2188" x2="369.7363" x1="525.9458" style="stroke:#333333;stroke-width:1;"/><polygon style="stroke:#333333;stroke-width:1;" points="379.7363,783.2188,369.7363,787.2188,379.7363,791.2188,375.7363,787.2188" fill="#333333"/><line y2="254.2031" y1="234.2031" x2="357.7363" x1="357.7363" style="stroke:#333333;stroke-width:1;"/><polygon style="stroke:#333333;stroke-width:1;" points="353.7363,244.2031,357.7363,254.2031,361.7363,244.2031,357.7363,248.2031" fill="#333333"/><line y2="899.4844" y1="879.4844" x2="357.7363" x1="357.7363" style="stroke:#333333;stroke-width:1;"/><polygon style="stroke:#333333;stroke-width:1;" points="353.7363,889.4844,357.7363,899.4844,361.7363,889.4844,357.7363,893.4844" fill="#333333"/><line y2="953.4531" y1="933.4531" x2="357.7363" x1="357.7363" style="stroke:#333333;stroke-width:1;"/><polygon style="stroke:#333333;stroke-width:1;" points="353.7363,943.4531,357.7363,953.4531,361.7363,943.4531,357.7363,947.4531" fill="#333333"/><line y2="845.5156" y1="799.2188" x2="357.7363" x1="357.7363" style="stroke:#333333;stroke-width:1;"/><polygon style="stroke:#333333;stroke-width:1;" points="353.7363,835.5156,357.7363,845.5156,361.7363,835.5156,357.7363,839.5156" fill="#333333"/><line y2="1158.6875" y1="1123.6875" x2="194.3467" x1="194.3467" style="stroke:#333333;stroke-width:1;"/><polygon style="stroke:#333333;stroke-width:1;" points="190.3467,1148.6875,194.3467,1158.6875,198.3467,1148.6875,194.3467,1152.6875" fill="#333333"/><line y2="1212.6563" y1="1192.6563" x2="194.3467" x1="194.3467" style="stroke:#333333;stroke-width:1;"/><polygon style="stroke:#333333;stroke-width:1;" points="190.3467,1202.6563,194.3467,1212.6563,198.3467,1202.6563,194.3467,1206.6563" fill="#333333"/><line y2="1266.625" y1="1246.625" x2="194.3467" x1="194.3467" style="stroke:#333333;stroke-width:1;"/><polygon style="stroke:#333333;stroke-width:1;" points="190.3467,1256.625,194.3467,1266.625,198.3467,1256.625,194.3467,1260.625" fill="#333333"/><line y2="1122.3906" y1="1087.3906" x2="521.126" x1="521.126" style="stroke:#333333;stroke-width:1;"/><polygon style="stroke:#333333;stroke-width:1;" points="517.126,1112.3906,521.126,1122.3906,525.126,1112.3906,521.126,1116.3906" fill="#333333"/><line y2="1031.4219" y1="1031.4219" x2="194.3467" x1="271.1211" style="stroke:#333333;stroke-width:1;"/><line y2="1089.7188" y1="1031.4219" x2="194.3467" x1="194.3467" style="stroke:#333333;stroke-width:1;"/><polygon style="stroke:#333333;stroke-width:1;" points="190.3467,1079.7188,194.3467,1089.7188,198.3467,1079.7188,194.3467,1083.7188" fill="#333333"/><line y2="1031.4219" y1="1031.4219" x2="521.126" x1="444.3516" style="stroke:#333333;stroke-width:1;"/><line y2="1053.4219" y1="1031.4219" x2="521.126" x1="521.126" style="stroke:#333333;stroke-width:1;"/><polygon style="stroke:#333333;stroke-width:1;" points="517.126,1043.4219,521.126,1053.4219,525.126,1043.4219,521.126,1047.4219" fill="#333333"/><line y2="1330.5938" y1="1300.5938" x2="194.3467" x1="194.3467" style="stroke:#333333;stroke-width:1;"/><line y2="1330.5938" y1="1330.5938" x2="345.7363" x1="194.3467" style="stroke:#333333;stroke-width:1;"/><polygon style="stroke:#333333;stroke-width:1;" points="335.7363,1326.5938,345.7363,1330.5938,335.7363,1334.5938,339.7363,1330.5938" fill="#333333"/><line y2="1330.5938" y1="1156.3594" x2="521.126" x1="521.126" style="stroke:#333333;stroke-width:1;"/><line y2="1330.5938" y1="1330.5938" x2="369.7363" x1="521.126" style="stroke:#333333;stroke-width:1;"/><polygon style="stroke:#333333;stroke-width:1;" points="379.7363,1326.5938,369.7363,1330.5938,379.7363,1334.5938,375.7363,1330.5938" fill="#333333"/><line y2="1019.4219" y1="987.4219" x2="357.7363" x1="357.7363" style="stroke:#333333;stroke-width:1;"/><polygon style="stroke:#333333;stroke-width:1;" points="353.7363,1009.4219,357.7363,1019.4219,361.7363,1009.4219,357.7363,1013.4219" fill="#333333"/><line y2="1442.8594" y1="1422.8594" x2="357.7363" x1="357.7363" style="stroke:#333333;stroke-width:1;"/><polygon style="stroke:#333333;stroke-width:1;" points="353.7363,1432.8594,357.7363,1442.8594,361.7363,1432.8594,357.7363,1436.8594" fill="#333333"/><line y2="1496.8281" y1="1476.8281" x2="357.7363" x1="357.7363" style="stroke:#333333;stroke-width:1;"/><polygon style="stroke:#333333;stroke-width:1;" points="353.7363,1486.8281,357.7363,1496.8281,361.7363,1486.8281,357.7363,1490.8281" fill="#333333"/><line y2="1564.7656" y1="1544.7656" x2="357.7363" x1="357.7363" style="stroke:#333333;stroke-width:1;"/><polygon style="stroke:#333333;stroke-width:1;" points="353.7363,1554.7656,357.7363,1564.7656,361.7363,1554.7656,357.7363,1558.7656" fill="#333333"/><line y2="1388.8906" y1="1342.5938" x2="357.7363" x1="357.7363" style="stroke:#333333;stroke-width:1;"/><polygon style="stroke:#333333;stroke-width:1;" points="353.7363,1378.8906,357.7363,1388.8906,361.7363,1378.8906,357.7363,1382.8906" fill="#333333"/><line y2="1630.7344" y1="1598.7344" x2="357.7363" x1="357.7363" style="stroke:#333333;stroke-width:1;"/><polygon style="stroke:#333333;stroke-width:1;" points="353.7363,1620.7344,357.7363,1630.7344,361.7363,1620.7344,357.7363,1624.7344" fill="#333333"/></g></svg>