<svg xmlns="http://www.w3.org/2000/svg" xmlns:xlink="http://www.w3.org/1999/xlink" contentStyleType="text/css" data-diagram-type="DESCRIPTION" height="1639px" preserveAspectRatio="none" style="width:1309px;height:1639px;background:#FFFFFF;" version="1.1" viewBox="0 0 1309 1639" width="1309px" zoomAndPan="magnify"><?plantuml 1.2026.4beta2?><defs/><g><!--cluster H? th?ng ?ng d?ng ??c truy?n tranh t?ch h?p AI--><g class="cluster" data-qualified-name="H. th.ng .ng d.ng ..c truy.n tranh t.ch h.p AI" data-source-line="31" id="ent0007"><rect fill="none" height="1616.19" rx="4" ry="4" style="stroke:#181818;stroke-width:1;" width="751" x="258.03" y="8.8677"/><text fill="#000000" font-family="'Arial'" font-size="27" font-weight="700" lengthAdjust="spacing" textLength="735.7104" x="265.6748" y="35.9297">H&#7879; th&#7889;ng &#7912;ng d&#7909;ng &#273;&#7885;c truy&#7879;n tranh t&#237;ch h&#7907;p AI</text></g><!--entity UC01--><g class="entity" data-qualified-name="H. th.ng .ng d.ng ..c truy.n tranh t.ch h.p AI.UC01" data-source-line="32" id="ent0008"><ellipse cx="769.0345" cy="105.3326" fill="#F0F4F8" rx="220.2745" ry="46.4549" style="stroke:#4A6572;stroke-width:0.5;"/><text fill="#2C3E50" font-family="'Arial'" font-size="27" lengthAdjust="spacing" textLength="354.3091" x="591.88" y="108.1032">UC_01: Xem danh s&#225;ch v&#224;</text><text fill="#2C3E50" font-family="'Arial'" font-size="27" lengthAdjust="spacing" textLength="216.1055" x="660.9818" y="139.5329">t&#236;m ki&#7871;m truy&#7879;n</text></g><!--entity UC02--><g class="entity" data-qualified-name="H. th.ng .ng d.ng ..c truy.n tranh t.ch h.p AI.UC02" data-source-line="33" id="ent0009"><ellipse cx="769.028" cy="272.3617" fill="#F0F4F8" rx="174.828" ry="45.604" style="stroke:#4A6572;stroke-width:0.5;"/><text fill="#2C3E50" font-family="'Arial'" font-size="27" lengthAdjust="spacing" textLength="253.5205" x="642.2677" y="271.5289">UC_02: &#272;&#7885;c truy&#7879;n</text><text fill="#2C3E50" font-family="'Arial'" font-size="27" lengthAdjust="spacing" textLength="206.0464" x="666.0048" y="302.9586">(Comic Viewer)</text></g><!--entity UC03--><g class="entity" data-qualified-name="H. th.ng .ng d.ng ..c truy.n tranh t.ch h.p AI.UC03" data-source-line="34" id="ent0010"><ellipse cx="764.0295" cy="426.2376" fill="#F0F4F8" rx="229.3995" ry="48.2799" style="stroke:#4A6572;stroke-width:0.5;"/><text fill="#2C3E50" font-family="'Arial'" font-size="27" lengthAdjust="spacing" textLength="379.2261" x="574.4164" y="429.4257">UC_03: Tra t&#7915; v&#7921;ng qua &#7843;nh</text><text fill="#2C3E50" font-family="'Arial'" font-size="27" lengthAdjust="spacing" textLength="244.3975" x="641.8307" y="460.8554">(Tap-to-Translate)</text></g><!--entity UC04--><g class="entity" data-qualified-name="H. th.ng .ng d.ng ..c truy.n tranh t.ch h.p AI.UC04" data-source-line="35" id="ent0011"><ellipse cx="764.0293" cy="581.3975" fill="#F0F4F8" rx="222.3993" ry="46.8799" style="stroke:#4A6572;stroke-width:0.5;"/><text fill="#2C3E50" font-family="'Arial'" font-size="27" lengthAdjust="spacing" textLength="409.6934" x="559.1827" y="593.6124">UC_04: &#272;&#259;ng k&#253; t&#224;i kho&#7843;n m&#7899;i</text></g><!--entity UC05--><g class="entity" data-qualified-name="H. th.ng .ng d.ng ..c truy.n tranh t.ch h.p AI.UC05" data-source-line="37" id="ent0012"><ellipse cx="752.0326" cy="749.7122" fill="#F0F4F8" rx="237.8226" ry="49.9645" style="stroke:#4A6572;stroke-width:0.5;"/><text fill="#2C3E50" font-family="'Arial'" font-size="27" lengthAdjust="spacing" textLength="442.5732" x="530.746" y="761.927">UC_05: &#272;&#259;ng nh&#7853;p v&#224; &#272;&#259;ng xu&#7845;t</text></g><!--entity UC06--><g class="entity" data-qualified-name="H. th.ng .ng d.ng ..c truy.n tranh t.ch h.p AI.UC06" data-source-line="38" id="ent0013"><ellipse cx="761.0254" cy="917.3348" fill="#F0F4F8" rx="218.9854" ry="46.1971" style="stroke:#4A6572;stroke-width:0.5;"/><text fill="#2C3E50" font-family="'Arial'" font-size="27" lengthAdjust="spacing" textLength="315.668" x="603.1914" y="915.7767">UC_06: Qu&#7843;n l&#253; t&#7911; s&#225;ch</text><text fill="#2C3E50" font-family="'Arial'" font-size="27" lengthAdjust="spacing" textLength="274.2847" x="623.8831" y="947.2064">c&#225; nh&#226;n (Bookmark)</text></g><!--entity UC07--><g class="entity" data-qualified-name="H. th.ng .ng d.ng ..c truy.n tranh t.ch h.p AI.UC07" data-source-line="39" id="ent0014"><ellipse cx="761.0313" cy="1072.3819" fill="#F0F4F8" rx="232.2213" ry="48.8443" style="stroke:#4A6572;stroke-width:0.5;"/><text fill="#2C3E50" font-family="'Arial'" font-size="27" lengthAdjust="spacing" textLength="393.1084" x="564.4771" y="1076.7245">UC_07: L&#432;u v&#7883; tr&#237; &#273;&#7885;c t&#7921; &#273;&#7897;ng</text><text fill="#2C3E50" font-family="'Arial'" font-size="27" lengthAdjust="spacing" textLength="236.5137" x="642.7744" y="1108.1542">(Reading History)</text></g><!--entity UC08--><g class="entity" data-qualified-name="H. th.ng .ng d.ng ..c truy.n tranh t.ch h.p AI.UC08" data-source-line="40" id="ent0015"><ellipse cx="761.0252" cy="1227.9467" fill="#F0F4F8" rx="221.6452" ry="46.729" style="stroke:#4A6572;stroke-width:0.5;"/><text fill="#2C3E50" font-family="'Arial'" font-size="27" lengthAdjust="spacing" textLength="325.0942" x="598.478" y="1226.6298">UC_08: G&#7917;i b&#236;nh lu&#7853;n v&#224;</text><text fill="#2C3E50" font-family="'Arial'" font-size="27" lengthAdjust="spacing" textLength="279.7163" x="621.167" y="1258.0594">t&#432;&#417;ng t&#225;c c&#7897;ng &#273;&#7891;ng</text></g><!--entity UC09--><g class="entity" data-qualified-name="H. th.ng .ng d.ng ..c truy.n tranh t.ch h.p AI.UC09" data-source-line="42" id="ent0016"><ellipse cx="748.0348" cy="1386.0826" fill="#F0F4F8" rx="244.9748" ry="51.395" style="stroke:#4A6572;stroke-width:0.5;"/><text fill="#2C3E50" font-family="'Arial'" font-size="27" lengthAdjust="spacing" textLength="392.6733" x="551.6982" y="1385.7254">UC_09: Qu&#7843;n l&#253; danh m&#7909;c v&#224;</text><text fill="#2C3E50" font-family="'Arial'" font-size="27" lengthAdjust="spacing" textLength="338.647" x="578.7114" y="1417.1551">th&#244;ng tin c&#7845;u tr&#250;c truy&#7879;n</text></g><!--entity UC10--><g class="entity" data-qualified-name="H. th.ng .ng d.ng ..c truy.n tranh t.ch h.p AI.UC10" data-source-line="43" id="ent0017"><ellipse cx="745.0259" cy="1558.8949" fill="#F0F4F8" rx="238.7859" ry="50.1572" style="stroke:#4A6572;stroke-width:0.5;"/><text fill="#2C3E50" font-family="'Arial'" font-size="27" lengthAdjust="spacing" textLength="402.9302" x="543.5608" y="1562.3241">UC_10: T&#7843;i l&#234;n ch&#432;&#417;ng m&#7899;i v&#224;</text><text fill="#2C3E50" font-family="'Arial'" font-size="27" lengthAdjust="spacing" textLength="274.2979" x="607.877" y="1593.7538">k&#237;ch ho&#7841;t AI Pipeline</text></g><!--entity Guest--><g class="entity" data-qualified-name="Guest" data-source-line="25" id="ent0002"><ellipse cx="1139.0229" cy="52.3977" fill="#F0F4F8" rx="8" ry="8" style="stroke:#34495E;stroke-width:0.5;"/><path d="M1139.0229,60.3977 L1139.0229,87.3977 M1126.0229,68.3977 L1152.0229,68.3977 M1139.0229,87.3977 L1126.0229,102.3977 M1139.0229,87.3977 L1152.0229,102.3977" fill="none" style="stroke:#34495E;stroke-width:0.5;"/><text fill="#2C3E50" font-family="'Arial'" font-size="27" font-weight="700" lengthAdjust="spacing" textLength="228.9858" x="1024.53" y="128.9597">Kh&#225;ch truy c&#7853;p</text><text fill="#2C3E50" font-family="'Arial'" font-size="27" font-weight="700" lengthAdjust="spacing" textLength="113.3525" x="1024.53" y="160.3894">(Guest)</text></g><!--entity User--><g class="entity" data-qualified-name="User" data-source-line="26" id="ent0003"><ellipse cx="1160.0254" cy="696.7777" fill="#F0F4F8" rx="8" ry="8" style="stroke:#34495E;stroke-width:0.5;"/><path d="M1160.0254,704.7777 L1160.0254,731.7777 M1147.0254,712.7777 L1173.0254,712.7777 M1160.0254,731.7777 L1147.0254,746.7777 M1160.0254,731.7777 L1173.0254,746.7777" fill="none" style="stroke:#34495E;stroke-width:0.5;"/><text fill="#2C3E50" font-family="'Arial'" font-size="27" font-weight="700" lengthAdjust="spacing" textLength="258.939" x="1025.21" y="773.3397">&#272;&#7897;c gi&#7843; h&#7879; th&#7889;ng</text><text fill="#2C3E50" font-family="'Arial'" font-size="27" font-weight="700" lengthAdjust="spacing" textLength="269.6309" x="1025.21" y="804.7694">(Registered User)</text></g><!--entity Admin--><g class="entity" data-qualified-name="Admin" data-source-line="27" id="ent0004"><ellipse cx="124.0261" cy="1505.9677" fill="#F0F4F8" rx="8" ry="8" style="stroke:#34495E;stroke-width:0.5;"/><path d="M124.0261,1513.9677 L124.0261,1540.9677 M111.0261,1521.9677 L137.0261,1521.9677 M124.0261,1540.9677 L111.0261,1555.9677 M124.0261,1540.9677 L137.0261,1555.9677" fill="none" style="stroke:#34495E;stroke-width:0.5;"/><text fill="#2C3E50" font-family="'Arial'" font-size="27" font-weight="700" lengthAdjust="spacing" textLength="198.2813" x="6" y="1582.5297">Qu&#7843;n tr&#7883; vi&#234;n</text><text fill="#2C3E50" font-family="'Arial'" font-size="27" font-weight="700" lengthAdjust="spacing" textLength="236.0522" x="6" y="1613.9594">(Administrator)</text></g><!--reverse link Guest to User--><g class="link" data-entity-1="ent0002" data-entity-2="ent0003" data-link-type="extension" data-source-line="29" id="lnk6"><path d="M1141.5984,185.0381 C1145.6084,307.6381 1154.04,565.4777 1158.04,688.0377" fill="none" id="Guest-backto-User" style="stroke:#34495E;stroke-width:1.5;"/><polygon fill="none" points="1141.01,167.0477,1135.6016,185.2342,1147.5952,184.8419,1141.01,167.0477" style="stroke:#34495E;stroke-width:1.5;"/></g><!--link UC01 to UC02--><!--link UC02 to UC03--><!--link UC03 to UC04--><!--link UC04 to UC05--><!--link UC05 to UC06--><!--link UC06 to UC07--><!--link UC07 to UC08--><!--link UC08 to UC09--><!--link UC09 to UC10--><!--link Guest to UC01--><g class="link" data-entity-1="ent0002" data-entity-2="ent0008" data-link-type="dependency" data-source-line="56" id="lnk27"><path d="M1024.19,105.3277 C1012.73,105.3277 1007.26,105.3277 995.8,105.3277" fill="none" id="Guest-to-UC01" style="stroke:#34495E;stroke-width:1.5;"/><polygon fill="#34495E" points="989.8,105.3277,998.8,109.3277,994.8,105.3277,998.8,101.3277,989.8,105.3277" style="stroke:#34495E;stroke-width:1.5;"/></g><!--link Guest to UC02--><g class="link" data-entity-1="ent0002" data-entity-2="ent0009" data-link-type="dependency" data-source-line="57" id="lnk28"><path d="M1024.26,159.8577 C1019.11,162.1977 1014.02,164.5077 1009.03,166.7577 C959.5,189.0577 909.4168,210.9453 864.2268,230.4953" fill="none" id="Guest-to-UC02" style="stroke:#34495E;stroke-width:1.5;"/><polygon fill="#34495E" points="858.72,232.8777,868.5684,232.9754,863.309,230.8924,865.3919,225.633,858.72,232.8777" style="stroke:#34495E;stroke-width:1.5;"/></g><!--link Guest to UC03--><g class="link" data-entity-1="ent0002" data-entity-2="ent0010" data-link-type="dependency" data-source-line="58" id="lnk29"><path d="M1092.04,167.1277 C1049.78,220.8577 990.02,294.2677 961.03,317.9577 C930.72,342.7277 899.178,361.8186 865.558,379.2286" fill="none" id="Guest-to-UC03" style="stroke:#34495E;stroke-width:1.5;"/><polygon fill="#34495E" points="860.23,381.9877,870.0614,381.401,864.67,379.6884,866.3826,374.2971,860.23,381.9877" style="stroke:#34495E;stroke-width:1.5;"/></g><!--link Guest to UC04--><g class="link" data-entity-1="ent0002" data-entity-2="ent0011" data-link-type="dependency" data-source-line="59" id="lnk30"><path d="M1132.99,167.2177 C1122.02,247.2377 1091.89,387.7577 1011.03,474.5177 C981.76,505.9177 947.1918,526.1767 907.7818,542.1267" fill="none" id="Guest-to-UC04" style="stroke:#34495E;stroke-width:1.5;"/><polygon fill="#34495E" points="902.22,544.3777,912.0633,544.7091,906.8548,542.5019,909.062,537.2934,902.22,544.3777" style="stroke:#34495E;stroke-width:1.5;"/></g><!--link User to UC05--><g class="link" data-entity-1="ent0003" data-entity-2="ent0012" data-link-type="dependency" data-source-line="61" id="lnk31"><path d="M1024.77,749.7077 C1013.28,749.7077 1007.78,749.7077 996.29,749.7077" fill="none" id="User-to-UC05" style="stroke:#34495E;stroke-width:1.5;"/><polygon fill="#34495E" points="990.29,749.7077,999.29,753.7077,995.29,749.7077,999.29,745.7077,990.29,749.7077" style="stroke:#34495E;stroke-width:1.5;"/></g><!--link User to UC06--><g class="link" data-entity-1="ent0003" data-entity-2="ent0013" data-link-type="dependency" data-source-line="62" id="lnk32"><path d="M1024.94,806.7877 C970.57,829.3577 914.5919,852.5982 864.6319,873.3282" fill="none" id="User-to-UC06" style="stroke:#34495E;stroke-width:1.5;"/><polygon fill="#34495E" points="859.09,875.6277,868.9358,875.873,863.7082,873.7114,865.8698,868.4838,859.09,875.6277" style="stroke:#34495E;stroke-width:1.5;"/></g><!--link User to UC07--><g class="link" data-entity-1="ent0003" data-entity-2="ent0014" data-link-type="dependency" data-source-line="63" id="lnk33"><path d="M1125.04,811.3677 C1095.71,857.9177 1050.16,921.1877 997.03,963.5377 C962.59,990.9777 925.5515,1010.8162 886.1115,1027.7862" fill="none" id="User-to-UC07" style="stroke:#34495E;stroke-width:1.5;"/><polygon fill="#34495E" points="880.6,1030.1577,890.4482,1030.2748,885.1929,1028.1815,887.2862,1022.9262,880.6,1030.1577" style="stroke:#34495E;stroke-width:1.5;"/></g><!--link User to UC08--><g class="link" data-entity-1="ent0003" data-entity-2="ent0015" data-link-type="dependency" data-source-line="64" id="lnk34"><path d="M1150.45,811.4877 C1134.79,892.0977 1096.42,1034.2977 1011.03,1121.2277 C980.31,1152.4877 944.4968,1172.7741 904.2368,1188.7541" fill="none" id="User-to-UC08" style="stroke:#34495E;stroke-width:1.5;"/><polygon fill="#34495E" points="898.66,1190.9677,908.5008,1191.3652,903.3073,1189.1231,905.5495,1183.9295,898.66,1190.9677" style="stroke:#34495E;stroke-width:1.5;"/></g><!--reverse link UC05 to Admin--><g class="link" data-entity-1="ent0012" data-entity-2="ent0004" data-link-type="dependency" data-source-line="66" id="lnk36"><path d="M592.4436,789.9307 C457.0436,833.1107 287.03,917.0477 287.03,1071.3777 C287.03,1071.3777 287.03,1071.3777 287.03,1228.9477 C287.03,1331.0877 223.16,1434.2477 175.38,1497.1377" fill="none" id="UC05-backto-Admin" style="stroke:#34495E;stroke-width:1.5;"/><polygon fill="#34495E" points="598.16,788.1077,588.3701,787.0313,593.3964,789.6268,590.8008,794.6531,598.16,788.1077" style="stroke:#34495E;stroke-width:1.5;"/></g><!--reverse link UC09 to Admin--><g class="link" data-entity-1="ent0016" data-entity-2="ent0004" data-link-type="dependency" data-source-line="67" id="lnk38"><path d="M594.7529,1429.0319 C485.3829,1458.9719 344.03,1497.6777 242.32,1525.5177" fill="none" id="UC09-backto-Admin" style="stroke:#34495E;stroke-width:1.5;"/><polygon fill="#34495E" points="600.54,1427.4477,590.8032,1425.9659,595.7174,1428.7679,592.9155,1433.682,600.54,1427.4477" style="stroke:#34495E;stroke-width:1.5;"/></g><!--reverse link UC10 to Admin--><g class="link" data-entity-1="ent0017" data-entity-2="ent0004" data-link-type="dependency" data-source-line="68" id="lnk40"><path d="M499.93,1558.8977 C412.05,1558.8977 330.16,1558.8977 242.28,1558.8977" fill="none" id="UC10-backto-Admin" style="stroke:#34495E;stroke-width:1.5;"/><polygon fill="#34495E" points="505.93,1558.8977,496.93,1554.8977,500.93,1558.8977,496.93,1562.8977,505.93,1558.8977" style="stroke:#34495E;stroke-width:1.5;"/></g><?plantuml-src dLHBQzHG6DtdLtp4ZIv6vf7CQo6q1HyeugCLmOhS9dScbsHknfkRrlfOkN0XWiLLSMELecW755mrY8kK_e_y4xzxys1iuiPPPC8vzvplcHlvZC-983FO8eu_5M7CNISCGW7d9lfdHDM9WXIS2XWkuNDKaYczAtS32e8wSebpwOJ4WRmSSdcJp2YOAuAHm6m-SPSzfT0T64iiSIJcyim0_As6mgLYBS-kPraZc-PubNd1JTeJQpBKdB8jqAxJetQxGlDqjyB0DLuiHumZwf28DiMqIDyUTFyZvby1Y13XJc5VBsRTOuxFQHH1vwAjX7a7pEjUUk1u84My2qvsl9XlylDNOXh92oQG2FHhUVRaRPRiEp1bsV4dyBBa5KXyxl4fQkxGAOia5TI5ZOYANAtUIl7j65KS0sN9QzXcwLUEgXLtnZZg1C4pkKP3Xg6aq8hdhUUNYYGCjGA4Jx6xvjMbu90bN_3fPiaX_ftiPSaRHzU3PrGymh6yT855ulbFSrYvPXPTAaUoiTRkgD3cnjgZTcSCzockZv95kZVRwOTDBjEZ6VXO-UzPPMwUTUbMBjqng6ujPOBLheKpvi0zHdTKWywAUvMuDuPrGK1coJVOpf8VMDRZc83gduSswsJUac4BZ_0e89BMhQpAob9vdBn41p_zXMtumC3tGZs9MPQyPxdqhDwkz7QbvvxQ3jMC4dc24psKjU3zIjmVGp7rG0NFaizvHpUvanwWOVgHm_dLCFHdHFZrAWQLqM0CDqw_nwePhx6XwQ8QCtP7l-yNIqXSXfbTnPKAnMxTSbXP3iTm9KiM3BRI8vnqW7akU37gq--d1-WYCLVy9fItZl6EJvlRDQfSHtzLh7S8stpe5CPU-bFvCgu-jSDObNBi_7ETEktIjzF6ZK1RXhPVKUmL6UeHvjv-lk4usWE9Amwts9m6Z5FJqAvwnLiFFEQwb3zqmntUkgGtjcIxJMolP7jDh5MoLXDhbwpTnFPBjj_43afsqCGEItROn8vATjJ0TlITgUyJQ0aszMGkwZHWtGQiru1PvMMrXDbrg5-71dLeQ1Zw0eHMG2ULMGqQrQ1E-my0?></g></svg>