<svg xmlns="http://www.w3.org/2000/svg" xmlns:xlink="http://www.w3.org/1999/xlink" contentStyleType="text/css" data-diagram-type="DESCRIPTION" height="1135px" preserveAspectRatio="none" style="width:638px;height:1135px;background:#FFFFFF;" version="1.1" viewBox="0 0 638 1135" width="638px" zoomAndPan="magnify"><?plantuml 1.2026.4beta2?><defs/><g><!--cluster H? th?ng ?ng d?ng ??c truy?n tranh t?ch h?p AI--><g class="cluster" data-qualified-name="H. th.ng .ng d.ng ..c truy.n tranh t.ch h.p AI" data-source-line="31" id="ent0005"><rect fill="none" height="1108.43" rx="4" ry="4" style="stroke:#181818;stroke-width:1;" width="342" x="135.83" y="7"/><text fill="#000000" font-family="'Arial'" font-size="12" font-weight="700" lengthAdjust="spacing" textLength="326.9824" x="143.3388" y="20.1387">H&#7879; th&#7889;ng &#7912;ng d&#7909;ng &#273;&#7885;c truy&#7879;n tranh t&#237;ch h&#7907;p AI</text></g><!--entity UC01--><g class="entity" data-qualified-name="H. th.ng .ng d.ng ..c truy.n tranh t.ch h.p AI.UC01" data-source-line="32" id="ent0006"><ellipse cx="355.8292" cy="59.7138" fill="#F0F4F8" rx="91.5192" ry="20.7038" style="stroke:#4A6572;stroke-width:0.5;"/><text fill="#2C3E50" font-family="'Arial'" font-size="11" lengthAdjust="spacing" textLength="144.3481" x="283.6552" y="58.7685">UC_01: Xem danh s&#225;ch v&#224;</text><text fill="#2C3E50" font-family="'Arial'" font-size="11" lengthAdjust="spacing" textLength="88.043" x="311.8078" y="71.5732">t&#236;m ki&#7871;m truy&#7879;n</text></g><!--entity UC02--><g class="entity" data-qualified-name="H. th.ng .ng d.ng ..c truy.n tranh t.ch h.p AI.UC02" data-source-line="33" id="ent0007"><ellipse cx="351.834" cy="185.1972" fill="#F0F4F8" rx="73.004" ry="20.3572" style="stroke:#4A6572;stroke-width:0.5;"/><text fill="#2C3E50" font-family="'Arial'" font-size="11" lengthAdjust="spacing" textLength="103.2861" x="300.1909" y="182.7838">UC_02: &#272;&#7885;c truy&#7879;n</text><text fill="#2C3E50" font-family="'Arial'" font-size="11" lengthAdjust="spacing" textLength="83.9448" x="309.8616" y="195.5885">(Comic Viewer)</text></g><!--entity UC03--><g class="entity" data-qualified-name="H. th.ng .ng d.ng ..c truy.n tranh t.ch h.p AI.UC03" data-source-line="34" id="ent0008"><ellipse cx="357.8268" cy="286.9974" fill="#F0F4F8" rx="95.2368" ry="21.4474" style="stroke:#4A6572;stroke-width:0.5;"/><text fill="#2C3E50" font-family="'Arial'" font-size="11" lengthAdjust="spacing" textLength="154.4995" x="280.5771" y="286.2222">UC_03: Tra t&#7915; v&#7921;ng qua &#7843;nh</text><text fill="#2C3E50" font-family="'Arial'" font-size="11" lengthAdjust="spacing" textLength="99.5693" x="308.0422" y="299.0268">(Tap-to-Translate)</text></g><!--entity UC04--><g class="entity" data-qualified-name="H. th.ng .ng d.ng ..c truy.n tranh t.ch h.p AI.UC04" data-source-line="35" id="ent0009"><ellipse cx="357.8349" cy="389.327" fill="#F0F4F8" rx="92.3849" ry="20.877" style="stroke:#4A6572;stroke-width:0.5;"/><text fill="#2C3E50" font-family="'Arial'" font-size="11" lengthAdjust="spacing" textLength="166.9121" x="274.3789" y="392.2293">UC_04: &#272;&#259;ng k&#253; t&#224;i kho&#7843;n m&#7899;i</text></g><!--entity UC05--><g class="entity" data-qualified-name="H. th.ng .ng d.ng ..c truy.n tranh t.ch h.p AI.UC05" data-source-line="37" id="ent0010"><ellipse cx="355.8285" cy="515.3437" fill="#F0F4F8" rx="98.6685" ry="22.1337" style="stroke:#4A6572;stroke-width:0.5;"/><text fill="#2C3E50" font-family="'Arial'" font-size="11" lengthAdjust="spacing" textLength="180.3076" x="265.6747" y="518.246">UC_05: &#272;&#259;ng nh&#7853;p v&#224; &#272;&#259;ng xu&#7845;t</text></g><!--entity UC06--><g class="entity" data-qualified-name="H. th.ng .ng d.ng ..c truy.n tranh t.ch h.p AI.UC06" data-source-line="38" id="ent0011"><ellipse cx="355.8341" cy="641.0688" fill="#F0F4F8" rx="90.9941" ry="20.5988" style="stroke:#4A6572;stroke-width:0.5;"/><text fill="#2C3E50" font-family="'Arial'" font-size="11" lengthAdjust="spacing" textLength="128.6055" x="291.5313" y="638.36">UC_06: Qu&#7843;n l&#253; t&#7911; s&#225;ch</text><text fill="#2C3E50" font-family="'Arial'" font-size="11" lengthAdjust="spacing" textLength="111.7456" x="299.9613" y="651.1647">c&#225; nh&#226;n (Bookmark)</text></g><!--entity UC07--><g class="entity" data-qualified-name="H. th.ng .ng d.ng ..c truy.n tranh t.ch h.p AI.UC07" data-source-line="39" id="ent0012"><ellipse cx="356.8264" cy="743.3373" fill="#F0F4F8" rx="96.3864" ry="21.6773" style="stroke:#4A6572;stroke-width:0.5;"/><text fill="#2C3E50" font-family="'Arial'" font-size="11" lengthAdjust="spacing" textLength="160.1553" x="276.7488" y="743.0324">UC_07: L&#432;u v&#7883; tr&#237; &#273;&#7885;c t&#7921; &#273;&#7897;ng</text><text fill="#2C3E50" font-family="'Arial'" font-size="11" lengthAdjust="spacing" textLength="96.3574" x="308.6477" y="755.8371">(Reading History)</text></g><!--entity UC08--><g class="entity" data-qualified-name="H. th.ng .ng d.ng ..c truy.n tranh t.ch h.p AI.UC08" data-source-line="40" id="ent0013"><ellipse cx="356.8277" cy="845.8355" fill="#F0F4F8" rx="92.0777" ry="20.8155" style="stroke:#4A6572;stroke-width:0.5;"/><text fill="#2C3E50" font-family="'Arial'" font-size="11" lengthAdjust="spacing" textLength="132.4458" x="290.6048" y="843.2249">UC_08: G&#7917;i b&#236;nh lu&#7853;n v&#224;</text><text fill="#2C3E50" font-family="'Arial'" font-size="11" lengthAdjust="spacing" textLength="113.9585" x="299.8484" y="856.0296">t&#432;&#417;ng t&#225;c c&#7897;ng &#273;&#7891;ng</text></g><!--entity UC09--><g class="entity" data-qualified-name="H. th.ng .ng d.ng ..c truy.n tranh t.ch h.p AI.UC09" data-source-line="42" id="ent0014"><ellipse cx="352.8323" cy="949.3665" fill="#F0F4F8" rx="101.5823" ry="22.7165" style="stroke:#4A6572;stroke-width:0.5;"/><text fill="#2C3E50" font-family="'Arial'" font-size="11" lengthAdjust="spacing" textLength="159.978" x="272.8433" y="947.1469">UC_09: Qu&#7843;n l&#253; danh m&#7909;c v&#224;</text><text fill="#2C3E50" font-family="'Arial'" font-size="11" lengthAdjust="spacing" textLength="137.9673" x="283.8487" y="959.9515">th&#244;ng tin c&#7845;u tr&#250;c truy&#7879;n</text></g><!--entity UC10--><g class="entity" data-qualified-name="H. th.ng .ng d.ng ..c truy.n tranh t.ch h.p AI.UC10" data-source-line="43" id="ent0015"><ellipse cx="351.8309" cy="1077.2222" fill="#F0F4F8" rx="99.0609" ry="22.2122" style="stroke:#4A6572;stroke-width:0.5;"/><text fill="#2C3E50" font-family="'Arial'" font-size="11" lengthAdjust="spacing" textLength="164.1567" x="269.7526" y="1076.5452">UC_10: T&#7843;i l&#234;n ch&#432;&#417;ng m&#7899;i v&#224;</text><text fill="#2C3E50" font-family="'Arial'" font-size="11" lengthAdjust="spacing" textLength="111.751" x="295.9554" y="1089.3499">k&#237;ch ho&#7841;t AI Pipeline</text></g><!--entity Guest--><g class="entity" data-qualified-name="Guest" data-source-line="27" id="ent0002"><ellipse cx="548.8262" cy="23.07" fill="#F0F4F8" rx="8" ry="8" style="stroke:#34495E;stroke-width:0.5;"/><path d="M548.8262,31.07 L548.8262,58.07 M535.8262,39.07 L561.8262,39.07 M548.8262,58.07 L535.8262,73.07 M548.8262,58.07 L561.8262,73.07" fill="none" style="stroke:#34495E;stroke-width:0.5;"/><text fill="#2C3E50" font-family="'Arial'" font-size="13" font-weight="700" lengthAdjust="spacing" textLength="110.2524" x="493.7" y="86.6369">Kh&#225;ch truy c&#7853;p</text><text fill="#2C3E50" font-family="'Arial'" font-size="13" font-weight="700" lengthAdjust="spacing" textLength="54.5771" x="493.7" y="101.7697">(Guest)</text></g><!--entity User--><g class="entity" data-qualified-name="User" data-source-line="28" id="ent0003"><ellipse cx="558.8311" cy="478.7" fill="#F0F4F8" rx="8" ry="8" style="stroke:#34495E;stroke-width:0.5;"/><path d="M558.8311,486.7 L558.8311,513.7 M545.8311,494.7 L571.8311,494.7 M558.8311,513.7 L545.8311,528.7 M558.8311,513.7 L571.8311,528.7" fill="none" style="stroke:#34495E;stroke-width:0.5;"/><text fill="#2C3E50" font-family="'Arial'" font-size="13" font-weight="700" lengthAdjust="spacing" textLength="124.6743" x="493.92" y="542.2669">&#272;&#7897;c gi&#7843; h&#7879; th&#7889;ng</text><text fill="#2C3E50" font-family="'Arial'" font-size="13" font-weight="700" lengthAdjust="spacing" textLength="129.8223" x="493.92" y="557.3997">(Registered User)</text></g><!--entity Admin--><g class="entity" data-qualified-name="Admin" data-source-line="29" id="ent0004"><ellipse cx="62.8274" cy="1040.59" fill="#F0F4F8" rx="8" ry="8" style="stroke:#34495E;stroke-width:0.5;"/><path d="M62.8274,1048.59 L62.8274,1075.59 M49.8274,1056.59 L75.8274,1056.59 M62.8274,1075.59 L49.8274,1090.59 M62.8274,1075.59 L75.8274,1090.59" fill="none" style="stroke:#34495E;stroke-width:0.5;"/><text fill="#2C3E50" font-family="'Arial'" font-size="13" font-weight="700" lengthAdjust="spacing" textLength="95.4688" x="6" y="1104.1569">Qu&#7843;n tr&#7883; vi&#234;n</text><text fill="#2C3E50" font-family="'Arial'" font-size="13" font-weight="700" lengthAdjust="spacing" textLength="113.6548" x="6" y="1119.2897">(Administrator)</text></g><!--link UC01 to UC02--><!--link UC02 to UC03--><!--link UC03 to UC04--><!--link UC04 to UC05--><!--link UC05 to UC06--><!--link UC06 to UC07--><!--link UC07 to UC08--><!--link UC08 to UC09--><!--link UC09 to UC10--><!--reverse link Guest to User--><g class="link" data-entity-1="ent0002" data-entity-2="ent0003" data-link-type="extension" data-source-line="56" id="lnk26"><path d="M550.7272,123.2923 C551.2672,141.7223 551.35,145.31 551.83,164.84 C554.51,274.5 556.89,403.54 558.06,469.92" fill="none" id="Guest-backto-User" style="stroke:#34495E;stroke-width:1.5;"/><polygon fill="none" points="550.2,105.3,544.7297,123.468,556.7246,123.1166,550.2,105.3" style="stroke:#34495E;stroke-width:1.5;"/></g><!--link Guest to UC01--><g class="link" data-entity-1="ent0002" data-entity-2="ent0006" data-link-type="dependency" data-source-line="58" id="lnk27"><path d="M493.58,59.71 C478.32,59.71 469.06,59.71 453.8,59.71" fill="none" id="Guest-to-UC01" style="stroke:#34495E;stroke-width:1.5;"/><polygon fill="#34495E" points="447.8,59.71,456.8,63.71,452.8,59.71,456.8,55.71,447.8,59.71" style="stroke:#34495E;stroke-width:1.5;"/></g><!--link Guest to UC02--><g class="link" data-entity-1="ent0002" data-entity-2="ent0007" data-link-type="dependency" data-source-line="59" id="lnk28"><path d="M493.43,95.43 C456.78,118.41 415.3031,144.4023 385.8031,162.9023" fill="none" id="Guest-to-UC02" style="stroke:#34495E;stroke-width:1.5;"/><polygon fill="#34495E" points="380.72,166.09,390.4699,164.6972,384.956,163.4336,386.2196,157.9196,380.72,166.09" style="stroke:#34495E;stroke-width:1.5;"/></g><!--link Guest to UC03--><g class="link" data-entity-1="ent0002" data-entity-2="ent0008" data-link-type="dependency" data-source-line="60" id="lnk29"><path d="M519.48,105.07 C499.22,134.58 470.95,173.64 442.83,205.55 C423.48,227.51 403.5047,246.2453 385.7847,261.9153" fill="none" id="Guest-to-UC03" style="stroke:#34495E;stroke-width:1.5;"/><polygon fill="#34495E" points="381.29,265.89,390.6818,262.9244,385.0355,262.5778,385.3822,256.9315,381.29,265.89" style="stroke:#34495E;stroke-width:1.5;"/></g><!--link Guest to UC04--><g class="link" data-entity-1="ent0002" data-entity-2="ent0009" data-link-type="dependency" data-source-line="61" id="lnk30"><path d="M543.56,105.3 C535.46,158.11 515.87,246.7 470.83,308.45 C451.43,335.04 425.6662,353.1205 401.0362,366.9005" fill="none" id="Guest-to-UC04" style="stroke:#34495E;stroke-width:1.5;"/><polygon fill="#34495E" points="395.8,369.83,405.6073,368.9265,400.1635,367.3887,401.7013,361.9449,395.8,369.83" style="stroke:#34495E;stroke-width:1.5;"/></g><!--reverse link UC05 to Admin--><g class="link" data-entity-1="ent0010" data-entity-2="ent0004" data-link-type="dependency" data-source-line="63" id="lnk32"><path d="M306.0741,538.0731 C239.2441,570.2531 125.83,639.34 125.83,742.34 C125.83,742.34 125.83,742.34 125.83,846.84 C125.83,913.12 101.06,986.45 82.59,1031.94" fill="none" id="UC05-backto-Admin" style="stroke:#34495E;stroke-width:1.5;"/><polygon fill="#34495E" points="311.48,535.47,301.6357,535.7706,306.9751,537.6392,305.1065,542.9785,311.48,535.47" style="stroke:#34495E;stroke-width:1.5;"/></g><!--reverse link UC09 to Admin--><g class="link" data-entity-1="ent0014" data-entity-2="ent0004" data-link-type="dependency" data-source-line="64" id="lnk34"><path d="M302.0061,972.419 C251.4361,994.369 174.99,1027.54 120.04,1051.39" fill="none" id="UC09-backto-Admin" style="stroke:#34495E;stroke-width:1.5;"/><polygon fill="#34495E" points="307.51,970.03,297.6615,969.9442,302.9234,972.0208,300.8468,977.2827,307.51,970.03" style="stroke:#34495E;stroke-width:1.5;"/></g><!--reverse link UC10 to Admin--><g class="link" data-entity-1="ent0015" data-entity-2="ent0004" data-link-type="dependency" data-source-line="65" id="lnk36"><path d="M246.72,1077.22 C202.52,1077.22 164.32,1077.22 120.12,1077.22" fill="none" id="UC10-backto-Admin" style="stroke:#34495E;stroke-width:1.5;"/><polygon fill="#34495E" points="252.72,1077.22,243.72,1073.22,247.72,1077.22,243.72,1081.22,252.72,1077.22" style="stroke:#34495E;stroke-width:1.5;"/></g><!--link User to UC05--><g class="link" data-entity-1="ent0003" data-entity-2="ent0010" data-link-type="dependency" data-source-line="67" id="lnk37"><path d="M493.5,515.34 C480.65,515.34 473.8,515.34 460.95,515.34" fill="none" id="User-to-UC05" style="stroke:#34495E;stroke-width:1.5;"/><polygon fill="#34495E" points="454.95,515.34,463.95,519.34,459.95,515.34,463.95,511.34,454.95,515.34" style="stroke:#34495E;stroke-width:1.5;"/></g><!--link User to UC06--><g class="link" data-entity-1="ent0003" data-entity-2="ent0011" data-link-type="dependency" data-source-line="68" id="lnk38"><path d="M493.48,556.17 C457.66,578 420.064,600.9184 391.814,618.1284" fill="none" id="User-to-UC06" style="stroke:#34495E;stroke-width:1.5;"/><polygon fill="#34495E" points="386.69,621.25,396.4571,619.9837,390.96,618.6487,392.295,613.1516,386.69,621.25" style="stroke:#34495E;stroke-width:1.5;"/></g><!--link User to UC07--><g class="link" data-entity-1="ent0003" data-entity-2="ent0012" data-link-type="dependency" data-source-line="69" id="lnk39"><path d="M535.18,560.81 C517.81,591.14 492.34,631.17 463.83,661.67 C441.42,685.63 416.2432,704.3582 393.6432,719.3182" fill="none" id="User-to-UC07" style="stroke:#34495E;stroke-width:1.5;"/><polygon fill="#34495E" points="388.64,722.63,398.3527,720.9977,392.8093,719.8701,393.9369,714.3268,388.64,722.63" style="stroke:#34495E;stroke-width:1.5;"/></g><!--link User to UC08--><g class="link" data-entity-1="ent0003" data-entity-2="ent0013" data-link-type="dependency" data-source-line="70" id="lnk40"><path d="M551.66,560.69 C541.29,613.71 517.95,703.04 470.83,765.02 C450.65,791.56 424.3403,809.7577 399.5403,823.5877" fill="none" id="User-to-UC08" style="stroke:#34495E;stroke-width:1.5;"/><polygon fill="#34495E" points="394.3,826.51,404.1086,825.6201,398.6669,824.0748,400.2122,818.6331,394.3,826.51" style="stroke:#34495E;stroke-width:1.5;"/></g><?plantuml-src fLGzRzn64EtvAmPq8nSN7E_8-oe4o08Y6mw2n9QC09PXhCYzuuAyvMMvb29_L2vI20Oik3BIM1O41ueES81K8WmN5FG_-4yok_pmMMIgiE3nvkrxC_Dco3XWV444cSCUSOEPY1BkkL4O2RWrrPSHroTAK70gOBGINo2JpEX3UHXI4DILAvX7foG9vVSHbp-IEGLpGp0Ickqd7h9d5AoUiO8ILs8jpmt0wquaF2esY-hwjZrsQ16lAo-nQNTgJqSQKx9bjEVsgTEjeqMo_jV_klozAFICbwiL935rIKpRQh39m1ds_dSDrhS9YH3HGPcksUospzo0qpW6wpj74Gk7pFj-TkBw84Lo26v-kLpiyhMjXCRojWaa1lrOdRrwawVlN9Yn_F8K_3pz7IJUZ_aCEG_eZCMI2kh1Jan5mLPF5Vdd15aS4-Nf4Uopx9mZQyERCuuyGV1CmT4Xmr3xGFWChJNlhcI2FFqJxrwUdk7FrN6UldPryNX6YHEElMHBx0ZFdovWuvvPMbBDOsUpQwayvixcqwurWLyexfAYnTg8_UpzBfVPnHm2RFFBl1OtRwhqQfNU19GrAvLWQvlHdBdmYD43vSPDShyczoUmBGZ8FFqBzlFqRsphruI0Cij7cMsowCYeWqTu7199cr9sBMMhEgvUeKAGVKORtZC8_4ZRFi_JFrX1lSbtQhvJyxclLa6PKKL-m_6ToKRoGKqUJA0SSQYIv-d7mj5TxcOdA9XzuB1s9ug2EH51iujXBJISm0_Ndn9bnX4QcYthCQCx-lbTkN74OrZPNToVI1ms9KUrv6W2MtcwPB2NNU2aGwnpoSjHNt-wFa4LYRNY2w2qTOwtVDPkrxXM7N_JiTuXjFdCBONzx1-boxXwhyuIrSgb-v_hP7KhNQkB6u6o36NFaUoN5UeH5jf1iU4usXE9Amu_iGKD6QUceLNrYdSU-yppA7_YHGUyiwutja9xRMY_Gljjg5sXTXlgLAZJXWugTD263Yjqs8QEAdJKXeuhTDo2MbtrdLFV8EWaYywBzV9hPkWVw0WsysMXOxN4UYsnValCDWpzpO9EIAUoygCH6ZT2M5zPtOgQqmmDcg5XCpJw5m00?></g></svg>