<svg xmlns="http://www.w3.org/2000/svg" xmlns:xlink="http://www.w3.org/1999/xlink" contentStyleType="text/css" data-diagram-type="DESCRIPTION" height="811px" preserveAspectRatio="none" style="width:705px;height:811px;background:#FFFFFF;" version="1.1" viewBox="0 0 705 811" width="705px" zoomAndPan="magnify"><?plantuml 1.2026.4beta2?><defs/><g><!--cluster H? th?ng ?ng d?ng ??c truy?n tranh t?ch h?p AI--><g class="cluster" data-qualified-name="H. th.ng .ng d.ng ..c truy.n tranh t.ch h.p AI" data-source-line="35" id="ent0007"><rect fill="none" height="790" rx="4" ry="4" style="stroke:#181818;stroke-width:1;" width="341.17" x="350.07" y="7"/><text fill="#000000" font-family="'Arial'" font-size="12" font-weight="700" lengthAdjust="spacing" textLength="326.9824" x="357.1638" y="20.1387">H&#7879; th&#7889;ng &#7912;ng d&#7909;ng &#273;&#7885;c truy&#7879;n tranh t&#237;ch h&#7907;p AI</text></g><!--entity UC01--><g class="entity" data-qualified-name="H. th.ng .ng d.ng ..c truy.n tranh t.ch h.p AI.UC01" data-source-line="36" id="ent0008"><ellipse cx="520.6592" cy="60.0038" fill="#F0F4F8" rx="91.5192" ry="20.7038" style="stroke:#4A6572;stroke-width:0.5;"/><text fill="#2C3E50" font-family="'Arial'" font-size="11" lengthAdjust="spacing" textLength="144.3481" x="448.4852" y="59.0585">UC_01: Xem danh s&#225;ch v&#224;</text><text fill="#2C3E50" font-family="'Arial'" font-size="11" lengthAdjust="spacing" textLength="88.043" x="476.6378" y="71.8632">t&#236;m ki&#7871;m truy&#7879;n</text></g><!--entity UC02--><g class="entity" data-qualified-name="H. th.ng .ng d.ng ..c truy.n tranh t.ch h.p AI.UC02" data-source-line="37" id="ent0009"><ellipse cx="520.664" cy="135.9972" fill="#F0F4F8" rx="73.004" ry="20.3572" style="stroke:#4A6572;stroke-width:0.5;"/><text fill="#2C3E50" font-family="'Arial'" font-size="11" lengthAdjust="spacing" textLength="103.2861" x="469.0209" y="133.5838">UC_02: &#272;&#7885;c truy&#7879;n</text><text fill="#2C3E50" font-family="'Arial'" font-size="11" lengthAdjust="spacing" textLength="83.9448" x="478.6916" y="146.3885">(Comic Viewer)</text></g><!--entity UC03--><g class="entity" data-qualified-name="H. th.ng .ng d.ng ..c truy.n tranh t.ch h.p AI.UC03" data-source-line="38" id="ent0010"><ellipse cx="520.6568" cy="212.9974" fill="#F0F4F8" rx="95.2368" ry="21.4474" style="stroke:#4A6572;stroke-width:0.5;"/><text fill="#2C3E50" font-family="'Arial'" font-size="11" lengthAdjust="spacing" textLength="154.4995" x="443.4071" y="212.2222">UC_03: Tra t&#7915; v&#7921;ng qua &#7843;nh</text><text fill="#2C3E50" font-family="'Arial'" font-size="11" lengthAdjust="spacing" textLength="99.5693" x="470.8722" y="225.0268">(Tap-to-Translate)</text></g><!--entity UC04--><g class="entity" data-qualified-name="H. th.ng .ng d.ng ..c truy.n tranh t.ch h.p AI.UC04" data-source-line="39" id="ent0011"><ellipse cx="520.6649" cy="289.997" fill="#F0F4F8" rx="92.3849" ry="20.877" style="stroke:#4A6572;stroke-width:0.5;"/><text fill="#2C3E50" font-family="'Arial'" font-size="11" lengthAdjust="spacing" textLength="166.9121" x="437.2089" y="292.8993">UC_04: &#272;&#259;ng k&#253; t&#224;i kho&#7843;n m&#7899;i</text></g><!--entity UC05--><g class="entity" data-qualified-name="H. th.ng .ng d.ng ..c truy.n tranh t.ch h.p AI.UC05" data-source-line="41" id="ent0012"><ellipse cx="520.6585" cy="599.0037" fill="#F0F4F8" rx="98.6685" ry="22.1337" style="stroke:#4A6572;stroke-width:0.5;"/><text fill="#2C3E50" font-family="'Arial'" font-size="11" lengthAdjust="spacing" textLength="180.3076" x="430.5047" y="601.906">UC_05: &#272;&#259;ng nh&#7853;p v&#224; &#272;&#259;ng xu&#7845;t</text></g><!--entity UC06--><g class="entity" data-qualified-name="H. th.ng .ng d.ng ..c truy.n tranh t.ch h.p AI.UC06" data-source-line="42" id="ent0013"><ellipse cx="520.6641" cy="520.9988" fill="#F0F4F8" rx="90.9941" ry="20.5988" style="stroke:#4A6572;stroke-width:0.5;"/><text fill="#2C3E50" font-family="'Arial'" font-size="11" lengthAdjust="spacing" textLength="128.6055" x="456.3613" y="518.29">UC_06: Qu&#7843;n l&#253; t&#7911; s&#225;ch</text><text fill="#2C3E50" font-family="'Arial'" font-size="11" lengthAdjust="spacing" textLength="111.7456" x="464.7913" y="531.0947">c&#225; nh&#226;n (Bookmark)</text></g><!--entity UC07--><g class="entity" data-qualified-name="H. th.ng .ng d.ng ..c truy.n tranh t.ch h.p AI.UC07" data-source-line="43" id="ent0014"><ellipse cx="520.6564" cy="443.9973" fill="#F0F4F8" rx="96.3864" ry="21.6773" style="stroke:#4A6572;stroke-width:0.5;"/><text fill="#2C3E50" font-family="'Arial'" font-size="11" lengthAdjust="spacing" textLength="160.1553" x="440.5788" y="443.6924">UC_07: L&#432;u v&#7883; tr&#237; &#273;&#7885;c t&#7921; &#273;&#7897;ng</text><text fill="#2C3E50" font-family="'Arial'" font-size="11" lengthAdjust="spacing" textLength="96.3574" x="472.4777" y="456.4971">(Reading History)</text></g><!--entity UC08--><g class="entity" data-qualified-name="H. th.ng .ng d.ng ..c truy.n tranh t.ch h.p AI.UC08" data-source-line="44" id="ent0015"><ellipse cx="520.6577" cy="366.9955" fill="#F0F4F8" rx="92.0777" ry="20.8155" style="stroke:#4A6572;stroke-width:0.5;"/><text fill="#2C3E50" font-family="'Arial'" font-size="11" lengthAdjust="spacing" textLength="132.4458" x="454.4348" y="364.3849">UC_08: G&#7917;i b&#236;nh lu&#7853;n v&#224;</text><text fill="#2C3E50" font-family="'Arial'" font-size="11" lengthAdjust="spacing" textLength="113.9585" x="463.6784" y="377.1896">t&#432;&#417;ng t&#225;c c&#7897;ng &#273;&#7891;ng</text></g><!--entity UC09--><g class="entity" data-qualified-name="H. th.ng .ng d.ng ..c truy.n tranh t.ch h.p AI.UC09" data-source-line="46" id="ent0016"><ellipse cx="520.6623" cy="757.9965" fill="#F0F4F8" rx="101.5823" ry="22.7165" style="stroke:#4A6572;stroke-width:0.5;"/><text fill="#2C3E50" font-family="'Arial'" font-size="11" lengthAdjust="spacing" textLength="159.978" x="440.6733" y="755.7769">UC_09: Qu&#7843;n l&#253; danh m&#7909;c v&#224;</text><text fill="#2C3E50" font-family="'Arial'" font-size="11" lengthAdjust="spacing" textLength="137.9673" x="451.6787" y="768.5815">th&#244;ng tin c&#7845;u tr&#250;c truy&#7879;n</text></g><!--entity UC10--><g class="entity" data-qualified-name="H. th.ng .ng d.ng ..c truy.n tranh t.ch h.p AI.UC10" data-source-line="47" id="ent0017"><ellipse cx="520.6609" cy="678.0022" fill="#F0F4F8" rx="99.0609" ry="22.2122" style="stroke:#4A6572;stroke-width:0.5;"/><text fill="#2C3E50" font-family="'Arial'" font-size="11" lengthAdjust="spacing" textLength="164.1567" x="438.5826" y="677.3252">UC_10: T&#7843;i l&#234;n ch&#432;&#417;ng m&#7899;i v&#224;</text><text fill="#2C3E50" font-family="'Arial'" font-size="11" lengthAdjust="spacing" textLength="111.751" x="464.7854" y="690.1299">k&#237;ch ho&#7841;t AI Pipeline</text></g><!--entity Guest--><g class="entity" data-qualified-name="Guest" data-source-line="29" id="ent0002"><ellipse cx="61.1262" cy="176.37" fill="#F0F4F8" rx="8" ry="8" style="stroke:#34495E;stroke-width:0.5;"/><path d="M61.1262,184.37 L61.1262,211.37 M48.1262,192.37 L74.1262,192.37 M61.1262,211.37 L48.1262,226.37 M61.1262,211.37 L74.1262,226.37" fill="none" style="stroke:#34495E;stroke-width:0.5;"/><text fill="#2C3E50" font-family="'Arial'" font-size="13" font-weight="700" lengthAdjust="spacing" textLength="110.2524" x="6" y="239.9369">Kh&#225;ch truy c&#7853;p</text><text fill="#2C3E50" font-family="'Arial'" font-size="13" font-weight="700" lengthAdjust="spacing" textLength="54.5771" x="6" y="255.0697">(Guest)</text></g><!--entity User--><g class="entity" data-qualified-name="User" data-source-line="30" id="ent0003"><ellipse cx="241.1611" cy="407.37" fill="#F0F4F8" rx="8" ry="8" style="stroke:#34495E;stroke-width:0.5;"/><path d="M241.1611,415.37 L241.1611,442.37 M228.1611,423.37 L254.1611,423.37 M241.1611,442.37 L228.1611,457.37 M241.1611,442.37 L254.1611,457.37" fill="none" style="stroke:#34495E;stroke-width:0.5;"/><text fill="#2C3E50" font-family="'Arial'" font-size="13" font-weight="700" lengthAdjust="spacing" textLength="124.6743" x="176.25" y="470.9369">&#272;&#7897;c gi&#7843; h&#7879; th&#7889;ng</text><text fill="#2C3E50" font-family="'Arial'" font-size="13" font-weight="700" lengthAdjust="spacing" textLength="129.8223" x="176.25" y="486.0697">(Registered User)</text></g><!--entity Admin--><g class="entity" data-qualified-name="Admin" data-source-line="31" id="ent0004"><ellipse cx="241.1674" cy="641.37" fill="#F0F4F8" rx="8" ry="8" style="stroke:#34495E;stroke-width:0.5;"/><path d="M241.1674,649.37 L241.1674,676.37 M228.1674,657.37 L254.1674,657.37 M241.1674,676.37 L228.1674,691.37 M241.1674,676.37 L254.1674,691.37" fill="none" style="stroke:#34495E;stroke-width:0.5;"/><text fill="#2C3E50" font-family="'Arial'" font-size="13" font-weight="700" lengthAdjust="spacing" textLength="95.4688" x="184.34" y="704.9369">Qu&#7843;n tr&#7883; vi&#234;n</text><text fill="#2C3E50" font-family="'Arial'" font-size="13" font-weight="700" lengthAdjust="spacing" textLength="113.6548" x="184.34" y="720.0697">(Administrator)</text></g><!--reverse link Guest to User--><g class="link" data-entity-1="ent0002" data-entity-2="ent0003" data-link-type="extension" data-source-line="33" id="lnk6"><path d="M108.0779,272.6172 C139.3679,313.2172 174.01,358.17 205.28,398.74" fill="none" id="Guest-backto-User" style="stroke:#34495E;stroke-width:1.5;"/><polygon fill="none" points="97.09,258.36,103.3255,276.2798,112.8302,268.9546,97.09,258.36" style="stroke:#34495E;stroke-width:1.5;"/></g><!--link Guest to UC01--><g class="link" data-entity-1="ent0002" data-entity-2="ent0008" data-link-type="dependency" data-source-line="50" id="lnk18"><path d="M116.52,180.74 C135.1,170.46 156.24,159.54 176.25,151 C266.3,112.56 370.834,87.9639 441.734,73.9439" fill="none" id="Guest-to-UC01" style="stroke:#34495E;stroke-width:1.5;"/><polygon fill="#34495E" points="447.62,72.78,438.015,70.6019,442.715,73.7499,439.5669,78.4499,447.62,72.78" style="stroke:#34495E;stroke-width:1.5;"/></g><!--link Guest to UC02--><g class="link" data-entity-1="ent0002" data-entity-2="ent0009" data-link-type="dependency" data-source-line="51" id="lnk19"><path d="M116.52,199.72 C135.37,195.35 156.68,190.68 176.25,187 C272.22,168.97 378.2905,154.1166 447.6205,145.0666" fill="none" id="Guest-to-UC02" style="stroke:#34495E;stroke-width:1.5;"/><polygon fill="#34495E" points="453.57,144.29,444.128,141.4886,448.6121,144.9372,445.1635,149.4213,453.57,144.29" style="stroke:#34495E;stroke-width:1.5;"/></g><!--link Guest to UC03--><g class="link" data-entity-1="ent0002" data-entity-2="ent0010" data-link-type="dependency" data-source-line="52" id="lnk20"><path d="M116.41,213 C192.51,213 326.04,213 419.33,213" fill="none" id="Guest-to-UC03" style="stroke:#34495E;stroke-width:1.5;"/><polygon fill="#34495E" points="425.33,213,416.33,209,420.33,213,416.33,217,425.33,213" style="stroke:#34495E;stroke-width:1.5;"/></g><!--link Guest to UC04--><g class="link" data-entity-1="ent0002" data-entity-2="ent0011" data-link-type="dependency" data-source-line="53" id="lnk21"><path d="M116.41,222.14 C198.19,235.9 347.3032,260.9946 439.4932,276.5046" fill="none" id="Guest-to-UC04" style="stroke:#34495E;stroke-width:1.5;"/><polygon fill="#34495E" points="445.41,277.5,437.1984,272.0623,440.4793,276.6705,435.8711,279.9514,445.41,277.5" style="stroke:#34495E;stroke-width:1.5;"/></g><!--link User to UC05--><g class="link" data-entity-1="ent0003" data-entity-2="ent0012" data-link-type="dependency" data-source-line="55" id="lnk22"><path d="M271.16,489.63 C288.82,513.78 313.47,541.91 342.07,559 C368.39,574.72 394.3732,583.1102 423.8132,588.9102" fill="none" id="User-to-UC05" style="stroke:#34495E;stroke-width:1.5;"/><polygon fill="#34495E" points="429.7,590.07,421.6429,584.4058,424.7943,589.1035,420.0966,592.2549,429.7,590.07" style="stroke:#34495E;stroke-width:1.5;"/></g><!--link User to UC06--><g class="link" data-entity-1="ent0003" data-entity-2="ent0013" data-link-type="dependency" data-source-line="56" id="lnk23"><path d="M306.39,470.82 C318.15,475.23 330.39,479.5 342.07,483 C376.35,493.28 409.2533,500.7593 441.8133,507.1793" fill="none" id="User-to-UC06" style="stroke:#34495E;stroke-width:1.5;"/><polygon fill="#34495E" points="447.7,508.34,439.6438,502.6745,442.7944,507.3728,438.0962,510.5234,447.7,508.34" style="stroke:#34495E;stroke-width:1.5;"/></g><!--link User to UC07--><g class="link" data-entity-1="ent0003" data-entity-2="ent0014" data-link-type="dependency" data-source-line="57" id="lnk24"><path d="M306.52,444 C341.35,444 379.05,444 417.8,444" fill="none" id="User-to-UC07" style="stroke:#34495E;stroke-width:1.5;"/><polygon fill="#34495E" points="423.8,444,414.8,440,418.8,444,414.8,448,423.8,444" style="stroke:#34495E;stroke-width:1.5;"/></g><!--link User to UC08--><g class="link" data-entity-1="ent0003" data-entity-2="ent0015" data-link-type="dependency" data-source-line="58" id="lnk25"><path d="M306.39,417.18 C318.15,412.77 330.39,408.5 342.07,405 C376.05,394.81 408.5739,387.3934 440.9539,380.9934" fill="none" id="User-to-UC08" style="stroke:#34495E;stroke-width:1.5;"/><polygon fill="#34495E" points="446.84,379.83,437.2352,377.651,441.9349,380.7995,438.7864,385.4992,446.84,379.83" style="stroke:#34495E;stroke-width:1.5;"/></g><!--link Admin to UC05--><g class="link" data-entity-1="ent0004" data-entity-2="ent0012" data-link-type="dependency" data-source-line="60" id="lnk26"><path d="M298.38,653.61 C312.49,648.02 327.7,642.42 342.07,638 C374.66,627.97 405.4731,620.6789 437.0231,614.1889" fill="none" id="Admin-to-UC05" style="stroke:#34495E;stroke-width:1.5;"/><polygon fill="#34495E" points="442.9,612.98,433.2786,610.8754,438.0025,613.9874,434.8905,618.7113,442.9,612.98" style="stroke:#34495E;stroke-width:1.5;"/></g><!--link Admin to UC09--><g class="link" data-entity-1="ent0004" data-entity-2="ent0016" data-link-type="dependency" data-source-line="61" id="lnk27"><path d="M298.4,702.33 C312.5,707.93 327.71,713.54 342.07,718 C374.37,728.03 404.8211,735.4128 436.1611,742.0728" fill="none" id="Admin-to-UC09" style="stroke:#34495E;stroke-width:1.5;"/><polygon fill="#34495E" points="442.03,743.32,434.058,737.5366,437.1392,742.2807,432.3951,745.3618,442.03,743.32" style="stroke:#34495E;stroke-width:1.5;"/></g><!--link Admin to UC10--><g class="link" data-entity-1="ent0004" data-entity-2="ent0017" data-link-type="dependency" data-source-line="62" id="lnk28"><path d="M298.32,678 C333.56,678 373.97,678 415.19,678" fill="none" id="Admin-to-UC10" style="stroke:#34495E;stroke-width:1.5;"/><polygon fill="#34495E" points="421.19,678,412.19,674,416.19,678,412.19,682,421.19,678" style="stroke:#34495E;stroke-width:1.5;"/></g><?plantuml-src fLHDRzD04BtxLupCfHo2udmdXqfj95e4Ga1RnA4IsjeRUsLd7TRhGlauSU1G8L5nghWqL16eD5AHEDL275prV_YVC6ixRjoK4puudjrzRzwycKtWCZuYWWnXXvYkBVoGMwRl-G9k3T972ueJ-QRWL41dRds4I6BJ3RddKH3Kb7Dx5XsGq9DtVIuVaY45VKKmukatdzXWhoaODMrkbvWIjRpH09zLNrXKz3DrzKQZswJPUg4ytnjK1ur19zrJjFbgpQpJPhLOpPBLh-9K_exlMTgxUGLXG4qIq9iqD4YhsQxzjmQZd908uR_CqoqMk-amq-Kq2C2uqrH0ZmuaI1y4inq95bCDO3xNjCmw_RuJZqq7f0Ztm4pEfwDjlhGMqa3Ure44a7xEpbvyIg934soMd1-3aqGVGEBxWDk8UK9j5aWgg0LR0HKPMdtDm8z3H75Cb4JxiClY4uwe5Ml8EE84mJCP9btID0M5IZYgl5tEHMXAEk4sja5VdqiEIVGTtrOIJV3duY29FfffFNX6vICSoukdM2IUFnx1oZqzjs_Mkwr-rL2fzQt-ywhHWsSKvqx1WjIRtVXecyluT0WkLlvdM93hrrbg1Kkj1ygjEILORTyVCXEUClfI6NGTN2_0zHvi2W8oYNx0RXBznB9UX0IKVmxIR99HHVeLFC83ZqYwIDKeg1fAnyLxP73ZtsZ34GFNyTDE39Fe2ykWr_7D0jyiyDnHqw7CcAsymevEv4BoLW5kzI3lkgUI9z6tpD5jRiPZ98o_SbXQzNrtI8IxM4Mx86htuC7bMQZCs4T3usdHPdGd_JxCXv1O39MjuqZvOc-HibDGTdgmbaHJ1ZlnANRQGvrJdhVwyknoZ2mIjUATKDnfZi_SljckRi7QBLMSpX3QF35pOYV-fNWPLrTj4gfIpir_ZfDHdV4QLPm8f6L8Uu9W9rUOjZ3ZThC9nzQE9OuuF68ZwZ5ETVKda5uWg5IMqr4lXxLoM2-7ZTbDpC9cAMgLedOfwcXQUfElaAMmMmgDwby0?></g></svg>